<svg version="1.1" xmlns="http://www.w3.org/2000/svg" viewBox="-1811.4564220428467 -1041.4080078125 10520.511751175269 2205.184030151367"><desc>Created with Snap</desc><defs></defs><g><rect x="-1811.4564220428467" y="-1041.4080078125" width="10520.511751175269" height="2205.184030151367" fill="#efd9ce" style=""></rect><g transform="matrix(0.2625,0,0,0.2625,6347.3791,-1013.8867)">
<g>
	<path d="M4420.813,2317.79c3.686-0.136,7.509,0.273,11.059,1.092c9.421,2.048,17.886,6.69,24.576,13.38l0.819,0.819
		c2.731,3.004,5.052,6.008,7.1,9.557c3.823,6.69,6.007,14.199,6.28,22.392c0.137,4.096-0.137,7.919-0.956,11.878
		c-2.048,9.421-6.69,17.886-13.38,24.576l-0.819,0.819c-3.003,2.731-6.007,5.052-9.557,7.1c-6.007,3.413-12.834,5.598-20.07,6.144
		c-191.283,18.022-376.423,45.056-555.418,80.555c59.802,88.473,155.648,161.928,284.262,213.811
		c13.653,5.598,27.443,10.65,41.097,15.565c25.532,8.875,38.912,36.727,30.037,62.259s-36.728,38.912-62.259,30.037
		c-15.838-5.598-30.993-11.196-45.329-17.067c-162.748-65.673-280.986-163.703-349.798-283.443
		c-269.517,58.982-524.698,137.216-765.406,233.199c68.403,94.754,170.394,175.309,303.513,237.158
		c53.794,24.986,112.094,46.831,174.899,65.126c25.941,7.509,40.823,34.679,33.314,60.621s-34.679,40.823-60.621,33.314
		c-68.403-20.071-131.345-43.554-188.689-70.178c-157.56-73.182-276.753-171.076-355.123-288.085
		c-236.203,100.215-457.933,217.634-664.781,350.481c126.566,209.579,341.743,382.703,636.655,501.76
		c28.672,11.605,57.617,22.528,87.108,32.768c25.532,8.875,38.912,36.727,30.037,62.259c-8.875,25.532-36.728,38.912-62.259,30.037
		c-31.539-11.059-61.986-22.528-91.341-34.406c-313.754-126.703-544.085-312.525-681.984-538.897
		c-4.642,3.14-9.421,6.281-14.063,9.557c-329.865,224.461-620.134,489.335-869.99,786.705
		c239.343,255.591,639.386,423.39,1054.72,459.298c398.131,34.406,808.414-52.838,1101.414-300.783
		c940.988-796.262,1577.643-1172.412,2068.48-1270.716c447.147-89.566,771.687,47.65,1089.673,308.429
		c-86.835-314.846-229.513-614.537-423.527-882.824c-216.132-298.735-496.025-558.694-833.672-757.624
		c-655.497-385.98-1405.338-469.811-2087.868-293.137s-1297.613,613.581-1683.593,1268.941
		c-114.552,194.697-202.615,397.858-265.148,605.389c-53.658,178.313-88.474,359.492-104.994,540.808
		c243.576-246.852,517.325-466.261,819.883-652.629c17.067-10.513,34.133-20.89,51.337-31.13
		c-76.186-229.513-70.315-487.834,25.122-760.218c8.328-23.894,17.34-47.514,26.76-70.998c10.104-25.122,38.502-37.273,63.625-27.17
		c25.122,10.103,37.274,38.502,27.17,63.625c-9.148,22.665-17.613,44.919-25.259,66.765
		c-85.197,243.302-93.525,473.225-30.993,677.615c212.446-120.422,438.135-225.144,676.932-312.525
		c-39.594-129.16-38.366-272.93,6.417-425.711c14.746-50.244,33.86-100.898,57.617-151.961
		c11.332-24.576,40.414-35.226,64.99-23.893c24.576,11.332,35.226,40.414,23.893,64.99c-21.982,47.377-39.595,93.525-52.565,138.172
		c-38.775,132.301-40.687,255.727-7.919,365.909c250.675-85.879,515.277-152.781,793.395-198.929
		c-27.853-107.725-21.299-226.509,22.255-350.891c4.233-12.151,8.738-23.893,13.38-35.499c10.104-25.122,38.502-37.274,63.625-27.17
		c25.122,10.104,37.274,38.502,27.17,63.625c-4.369,10.786-8.329,21.299-11.878,31.266
		c-38.093,108.954-43.145,211.763-17.476,303.514c195.789-28.809,398.131-47.514,606.754-55.296h0.819L4420.813,2317.79z
		 M3771.324,5874.347c-3.686,0.137-7.509-0.273-11.059-1.092c-9.421-2.048-17.886-6.69-24.576-13.38l-0.819-0.819
		c-2.731-3.004-5.052-6.008-7.1-9.558c-3.823-6.69-6.007-14.199-6.281-22.392c-0.136-4.096,0.137-7.918,0.956-11.878
		c2.048-9.421,6.69-17.886,13.38-24.576l0.819-0.819c3.004-2.73,6.008-5.052,9.557-7.1c6.008-3.414,12.834-5.598,20.07-6.144
		c191.283-18.022,376.422-45.056,555.417-80.555c-59.801-88.474-155.648-161.929-284.262-213.811
		c-13.653-5.598-27.443-10.65-41.096-15.565c-25.532-8.875-38.912-36.728-30.037-62.259c8.875-25.532,36.727-38.912,62.259-30.037
		c15.838,5.598,30.993,11.196,45.329,17.066c162.748,65.673,280.986,163.704,349.799,283.443
		c269.517-58.982,524.697-137.216,765.406-233.199c-68.403-94.754-170.394-175.309-303.514-237.158
		c-53.794-24.985-112.094-46.831-174.899-65.126c-25.941-7.509-40.824-34.679-33.314-60.621s34.68-40.824,60.621-33.314
		c68.403,20.071,131.345,43.554,188.689,70.178c157.56,73.182,276.753,171.076,355.123,288.085
		c236.203-100.215,457.933-217.634,664.781-350.481c-126.566-209.579-341.743-382.703-636.655-501.76
		c-28.672-11.605-57.617-22.528-87.108-32.768c-25.532-8.875-38.912-36.727-30.037-62.259c8.875-25.532,36.728-38.912,62.259-30.038
		c31.539,11.059,61.986,22.528,91.341,34.406c313.753,126.703,544.085,312.525,681.984,538.897
		c4.642-3.141,9.421-6.281,14.063-9.558c329.864-224.46,620.134-489.335,869.99-786.705
		c-239.343-255.59-639.386-423.39-1054.72-459.298c-398.131-34.406-808.414,52.838-1101.414,300.783
		c-940.988,796.263-1577.643,1172.412-2068.48,1270.716c-447.147,89.566-771.686-47.65-1089.672-308.429
		c86.835,314.846,229.513,614.537,423.663,882.824c216.132,298.735,496.026,558.695,833.673,757.624l0,0
		c655.496,385.98,1405.338,469.675,2087.867,293.137c682.53-176.674,1297.613-613.581,1683.593-1268.941l0.137-0.273
		c114.551-194.56,202.479-397.722,265.011-605.116c53.657-178.313,88.474-359.492,104.994-540.809
		c-243.576,246.853-517.325,466.261-819.883,652.629c-17.067,10.513-34.133,20.89-51.336,31.129
		c76.186,229.513,70.314,487.834-25.122,760.218c-8.329,23.894-17.34,47.514-26.761,70.998
		c-10.104,25.122-38.502,37.273-63.625,27.17s-37.273-38.502-27.17-63.625c9.148-22.665,17.613-44.919,25.259-66.765
		c85.197-243.303,93.525-473.225,30.993-677.615c-212.446,120.422-438.135,225.144-676.932,312.525
		c39.595,129.161,38.366,272.93-6.417,425.711c-14.746,50.244-33.86,100.898-57.617,151.961
		c-11.333,24.576-40.414,35.226-64.99,23.894c-24.576-11.333-35.226-40.414-23.894-64.99
		c21.982-47.377,39.595-93.525,52.565-138.172c38.775-132.301,40.687-255.727,7.919-365.909
		c-250.675,85.879-515.277,152.781-793.396,198.929c27.853,107.725,21.299,226.509-22.255,350.891
		c-4.232,12.151-8.738,23.893-13.38,35.499c-10.104,25.122-38.502,37.273-63.625,27.17c-25.122-10.104-37.273-38.502-27.17-63.625
		c4.369-10.786,8.329-21.299,11.878-31.266c38.093-108.954,43.145-211.763,17.476-303.514
		c-195.789,28.809-398.131,47.514-606.754,55.296h-0.819L3771.324,5874.347z M6097.169,5070.848
		c-7.373,5.052-14.746,9.967-22.118,14.882c5.052,10.24,9.831,20.617,14.473,30.993c12.015-7.236,23.893-14.473,35.771-21.845
		c696.047-428.851,1235.627-1035.605,1604.54-1753.225c-0.273-10.65-14.473-24.576-32.495-37.41
		c-14.2-10.104-30.311-18.705-45.875-25.122c-10.104-4.232-19.524-7.373-27.853-9.421
		c-164.25,346.385-367.548,669.696-608.938,962.833l-0.956,1.092c-261.461,317.304-567.433,599.381-916.685,837.086
		L6097.169,5070.848z M5992.584,5139.797c-159.334,101.99-327.271,194.97-503.535,278.255
		c179.951-73.728,351.846-157.833,515.55-251.358C6000.776,5157.683,5996.681,5148.809,5992.584,5139.797z M6974.532,4126.993
		c226.236-282.078,417.246-591.736,571.938-922.556c13.107-28.126,42.325-38.502,78.916-33.724
		c18.295,2.321,40.687,8.738,63.215,18.022c22.119,9.148,45.056,21.436,65.399,35.908c49.971,35.772,85.743,85.879,70.042,144.999
		l-1.229,4.779l-2.594,5.052c-193.741,378.334-433.903,726.63-718.438,1035.605c0.273,2.321,0.273,4.642,0.137,7.1
		c-11.605,225.553-49.971,451.243-116.463,672.154c-64.581,214.494-155.785,424.892-274.705,626.824l-3.55,6.007l-0.137,0.137
		c-399.906,675.294-1035.196,1125.717-1739.708,1307.989c-706.697,182.818-1483.162,96.12-2161.869-303.514l-6.008-3.55l0,0
		c-347.341-205.755-635.153-473.498-857.429-780.834c-232.516-321.399-393.626-685.943-476.638-1068.1
		c-5.734-26.488,11.059-52.565,37.547-58.3c16.794-3.687,33.314,1.775,44.783,12.971c334.37,304.196,658.091,477.73,1120.529,385.16
		c474.59-95.027,1097.318-464.759,2024.38-1249.143c314.709-266.24,751.206-360.312,1173.094-323.857
		c432.811,37.41,852.104,212.719,1108.924,480.87H6974.532z M2094.968,3121.425c7.373-5.052,14.746-9.967,22.118-14.882
		c-5.052-10.24-9.831-20.616-14.473-30.993c-12.015,7.236-23.893,14.473-35.908,21.845
		C1370.658,3526.246,831.078,4133,462.165,4850.62c0.273,10.65,14.473,24.576,32.495,37.41
		c14.199,10.104,30.31,18.705,45.875,25.122c10.103,4.233,19.524,7.373,27.853,9.421
		c164.25-346.385,367.548-669.696,608.939-962.833l0.819-1.092c261.461-317.303,567.433-599.381,916.685-837.086L2094.968,3121.425z
		 M2199.552,3052.476c159.334-101.99,327.271-194.97,503.535-278.255c-179.951,73.728-351.846,157.833-515.55,251.358
		C2191.36,3034.59,2195.456,3043.465,2199.552,3052.476z M1217.604,4065.28c-226.236,282.078-417.246,591.736-571.938,922.556
		c-13.107,28.125-42.189,38.502-78.916,33.724c-18.295-2.321-40.687-8.738-63.215-18.022c-22.118-9.148-45.056-21.436-65.399-35.908
		c-49.971-35.772-85.743-85.879-70.042-144.999l1.229-4.779l2.594-5.051c193.741-378.334,433.903-726.631,718.438-1035.605
		c-0.273-2.321-0.273-4.642-0.137-7.1c11.605-225.553,49.971-451.243,116.463-672.154
		c64.58-214.494,155.785-424.892,274.705-626.824c399.77-678.844,1036.698-1131.315,1743.394-1314.133
		s1483.162-96.12,2161.869,303.514c350.208,206.165,639.932,475.273,863.573,784.384
		c232.516,321.399,393.625,685.943,476.638,1068.1c5.734,26.487-11.059,52.565-37.547,58.3c-16.793,3.687-33.314-1.775-44.783-12.97
		c-334.37-304.196-658.091-477.73-1120.529-385.161c-474.59,95.027-1097.318,464.76-2024.379,1249.144
		c-314.573,266.24-751.207,360.312-1173.094,323.857C1893.717,4508.74,1474.423,4333.432,1217.604,4065.28z" fill="#292929" style=""></path>
</g>
<desc>Created with Snap</desc><defs></defs></g><g><g transform="matrix(1.024,0,0,-1.024,0,0)"><path d="M201 548L201 216Q201 146 234 117Q268 89 330 89Q393 89 427 120Q462 151 462 211L462 577L404 580L404 665L641 665L641 584L608 581Q579 578 579 551L579 194Q579 97 511 42Q443 -13 323 -13Q203 -13 141 40Q80 94 80 210L80 577L22 580L22 665L264 665L264 584L231 581Q215 579 208 572Q201 566 201 548ZM728 419L686 422L686 503L855 503L855 438Q911 518 1008 518Q1106 518 1140 438Q1196 518 1292 518Q1364 518 1403 474Q1442 431 1442 344L1442 83L1499 80L1499 0L1261 0L1261 76L1294 79Q1309 81 1315 87Q1322 94 1323 111L1323 318Q1323 373 1310 399Q1298 426 1252 426Q1206 426 1181 398Q1157 370 1157 323L1157 83L1212 80L1212 0L976 0L976 76L1009 79Q1024 81 1031 87Q1038 94 1038 112L1038 318Q1038 373 1025 399Q1013 426 966 426Q920 426 896 397Q872 368 872 325L872 83L926 80L926 0L690 0L690 76L723 79Q738 81 745 87Q752 94 752 112L753 112L753 388Q753 405 747 411Q742 418 728 419ZM2007 483L2007 111Q2007 95 2012 89Q2018 83 2032 82L2064 80L2064 0L1905 0L1905 58L1902 59Q1852 -13 1765 -13Q1663 -13 1614 52Q1565 117 1565 230Q1565 366 1631 442Q1697 518 1829 518Q1914 518 2007 483ZM1891 159L1891 418Q1863 431 1814 431Q1747 431 1717 377Q1687 323 1687 234Q1687 72 1791 72Q1835 72 1863 98Q1891 125 1891 159ZM2161 419L2119 422L2119 503L2288 503L2288 438Q2344 518 2441 518Q2539 518 2573 438Q2629 518 2725 518Q2797 518 2836 474Q2875 431 2875 344L2875 83L2932 80L2932 0L2694 0L2694 76L2727 79Q2742 81 2748 87Q2755 94 2756 111L2756 318Q2756 373 2743 399Q2731 426 2685 426Q2639 426 2614 398Q2590 370 2590 323L2590 83L2645 80L2645 0L2409 0L2409 76L2442 79Q2457 81 2464 87Q2471 94 2471 112L2471 318Q2471 373 2458 399Q2446 426 2399 426Q2353 426 2329 397Q2305 368 2305 325L2305 83L2359 80L2359 0L2123 0L2123 76L2156 79Q2171 81 2178 87Q2185 94 2185 112L2186 112L2186 388Q2186 405 2180 411Q2175 418 2161 419ZM2993 503L3172 503L3172 83L3229 80L3229 0L2991 0L2991 76L3024 79Q3053 82 3053 111L3053 389Q3053 406 3047 412Q3042 418 3028 418L2993 420L2993 503ZM3046 589Q3025 610 3025 642Q3025 674 3046 695Q3067 717 3101 717Q3135 717 3156 695Q3178 674 3178 642Q3178 610 3156 589Q3135 569 3101 569Q3067 569 3046 589ZM3501 665L3702 665L3872 213L3874 213L4045 665L4243 665L4243 584L4210 581Q4180 578 4181 546L4206 88L4268 85L4268 0L4027 0L4027 81L4063 84Q4090 86 4089 110L4070 463L4068 463L3914 64L3819 64L3667 459L3665 459L3645 88L3710 85L3710 0L3474 0L3474 81L3510 84Q3533 86 3535 111L3562 576L3501 580L3501 665ZM4770 483L4770 111Q4770 95 4775 89Q4781 83 4795 82L4827 80L4827 0L4668 0L4668 58L4665 59Q4615 -13 4528 -13Q4426 -13 4377 52Q4328 117 4328 230Q4328 366 4394 442Q4460 518 4592 518Q4677 518 4770 483ZM4654 159L4654 418Q4626 431 4577 431Q4510 431 4480 377Q4450 323 4450 234Q4450 72 4554 72Q4598 72 4626 98Q4654 125 4654 159ZM4924 419L4882 422L4882 503L5051 503L5051 438Q5107 518 5204 518Q5302 518 5336 438Q5392 518 5488 518Q5560 518 5599 474Q5638 431 5638 344L5638 83L5695 80L5695 0L5457 0L5457 76L5490 79Q5505 81 5511 87Q5518 94 5519 111L5519 318Q5519 373 5506 399Q5494 426 5448 426Q5402 426 5377 398Q5353 370 5353 323L5353 83L5408 80L5408 0L5172 0L5172 76L5205 79Q5220 81 5227 87Q5234 94 5234 112L5234 318Q5234 373 5221 399Q5209 426 5162 426Q5116 426 5092 397Q5068 368 5068 325L5068 83L5122 80L5122 0L4886 0L4886 76L4919 79Q4934 81 4941 87Q4948 94 4948 112L4949 112L4949 388Q4949 405 4943 411Q4938 418 4924 419ZM5756 503L5935 503L5935 83L5992 80L5992 0L5754 0L5754 76L5787 79Q5816 82 5816 111L5816 389Q5816 406 5810 412Q5805 418 5791 418L5756 420L5756 503ZM5809 589Q5788 610 5788 642Q5788 674 5809 695Q5830 717 5864 717Q5898 717 5919 695Q5941 674 5941 642Q5941 610 5919 589Q5898 569 5864 569Q5830 569 5809 589Z" fill="#292929" style=""></path></g></g><g transform="matrix(0.75,0,0,0.75,-1536.5124,848.896)"><g transform="matrix(1.024,0,0,-1.024,0,0)"><path d="M835 650L835 599L748 599L748 51L833 51L833 0L610 0L610 51L691 51L691 509L687 509L456 28L421 28L188 510L184 510L184 51L266 51L266 0L44 0L44 51L129 51L129 599L42 599L42 650L180 650L439 113L443 113L697 650L835 650ZM1346 222Q1346 122 1288 56Q1230 -10 1129 -10Q1029 -10 973 55Q918 121 918 219Q918 316 973 384Q1028 453 1133 453Q1238 453 1292 384Q1346 316 1346 222ZM1287 223Q1287 301 1247 352Q1207 404 1131 404Q1055 404 1015 351Q976 299 976 222Q976 146 1015 92Q1055 39 1131 39Q1207 39 1247 92Q1287 145 1287 223ZM1663 452Q1710 452 1736 429L1752 330L1706 324L1689 400Q1674 404 1655 404Q1611 404 1583 367Q1555 330 1555 273L1555 46L1664 46L1664 0L1417 0L1417 46L1500 46L1500 397L1416 397L1416 444L1552 444L1552 365Q1565 402 1596 427Q1627 452 1663 452ZM2182 135L2228 124Q2218 68 2172 29Q2126 -10 2048 -10Q1955 -10 1899 50Q1843 110 1843 216Q1843 320 1897 386Q1951 453 2042 453Q2133 453 2178 393Q2224 334 2224 258Q2224 236 2219 208L1901 208Q1903 128 1942 83Q1981 39 2052 39Q2157 39 2182 135ZM1902 254L2166 254Q2171 307 2140 355Q2109 404 2039 404Q1972 404 1940 359Q1909 314 1902 254ZM2819 129L2862 115Q2842 -10 2727 -10Q2662 -10 2629 28Q2597 66 2597 130L2597 397L2524 397L2524 444L2597 444L2597 588L2652 588L2652 444L2829 444L2829 397L2652 397L2652 136Q2652 92 2670 65Q2688 39 2733 39Q2762 39 2785 56Q2808 74 2819 129ZM3417 46L3417 0L3197 0L3197 46L3280 46L3280 267Q3280 343 3248 373Q3216 404 3167 404Q3106 404 3066 361Q3026 318 3024 268L3024 46L3106 46L3106 0L2887 0L2887 46L2969 46L2969 642L2887 642L2887 688L3024 688L3024 360Q3047 403 3087 428Q3128 453 3183 453Q3249 453 3292 412Q3335 371 3335 280L3335 46L3417 46ZM3494 310L3510 409Q3538 432 3577 442Q3617 453 3657 453Q3811 453 3811 304L3811 88Q3811 37 3850 37Q3870 37 3883 44L3884 4Q3862 -10 3832 -10Q3756 -10 3756 80L3756 82Q3735 46 3695 18Q3656 -10 3603 -10Q3559 -10 3513 16Q3468 43 3468 114Q3468 198 3535 224Q3602 251 3676 251Q3697 251 3717 249Q3738 248 3756 247L3756 294Q3756 345 3732 374Q3709 404 3648 404Q3598 404 3558 384L3540 304L3494 310ZM3756 163L3756 204Q3737 206 3715 207Q3693 209 3669 209Q3615 209 3570 192Q3526 176 3526 120Q3526 72 3557 55Q3588 39 3617 39Q3667 39 3710 73Q3753 108 3756 163ZM4462 46L4462 0L4243 0L4243 46L4325 46L4325 267Q4325 343 4293 373Q4262 404 4215 404Q4150 404 4111 361Q4072 319 4070 267L4070 46L4152 46L4152 0L3932 0L3932 46L4015 46L4015 397L3931 397L3931 444L4070 444L4070 362Q4119 453 4228 453Q4294 453 4337 412Q4380 371 4380 280L4380 46L4462 46ZM5559 46L5559 0L5340 0L5340 46L5422 46L5422 267Q5422 343 5391 373Q5361 404 5315 404Q5249 404 5213 354Q5178 304 5176 263L5176 46L5258 46L5258 0L5039 0L5039 46L5121 46L5121 267Q5121 344 5090 374Q5060 404 5015 404Q4949 404 4913 355Q4878 306 4876 265L4876 46L4956 46L4956 0L4738 0L4738 46L4821 46L4821 397L4737 397L4737 444L4876 444L4876 357Q4898 398 4935 425Q4972 453 5028 453Q5080 453 5118 426Q5156 400 5169 343Q5190 390 5230 421Q5270 453 5329 453Q5394 453 5435 412Q5477 371 5477 280L5477 46L5559 46ZM6106 46L6106 0L5968 0L5968 88Q5947 44 5906 17Q5865 -10 5811 -10Q5745 -10 5701 31Q5657 72 5657 163L5657 397L5575 397L5575 444L5712 444L5712 176Q5712 100 5744 69Q5777 39 5827 39Q5887 39 5926 86Q5966 133 5968 181L5968 397L5870 397L5870 444L6023 444L6023 46L6106 46ZM6511 126Q6511 64 6458 27Q6406 -10 6329 -10Q6282 -10 6236 3Q6191 17 6167 34L6179 128L6224 124L6220 64Q6267 39 6327 39Q6376 39 6415 58Q6455 78 6455 120Q6455 160 6426 177Q6398 194 6356 201Q6314 209 6272 218Q6231 227 6202 251Q6174 275 6174 326Q6174 394 6223 423Q6272 453 6330 453Q6376 453 6416 440Q6457 427 6482 412L6492 310L6446 304L6434 379Q6413 390 6390 397Q6367 404 6337 404Q6290 404 6261 387Q6232 370 6232 332Q6232 294 6260 278Q6288 263 6330 256Q6372 249 6413 239Q6455 229 6483 204Q6511 179 6511 126ZM7101 46L7101 0L6881 0L6881 46L6964 46L6964 267Q6964 343 6932 373Q6900 404 6851 404Q6790 404 6750 361Q6710 318 6708 268L6708 46L6790 46L6790 0L6571 0L6571 46L6653 46L6653 642L6571 642L6571 688L6708 688L6708 360Q6731 403 6771 428Q6812 453 6867 453Q6933 453 6976 412Q7019 371 7019 280L7019 46L7101 46ZM7385 452Q7432 452 7458 429L7474 330L7428 324L7411 400Q7396 404 7377 404Q7333 404 7305 367Q7277 330 7277 273L7277 46L7386 46L7386 0L7139 0L7139 46L7222 46L7222 397L7138 397L7138 444L7274 444L7274 365Q7287 402 7318 427Q7349 452 7385 452ZM7992 222Q7992 122 7934 56Q7876 -10 7775 -10Q7675 -10 7619 55Q7564 121 7564 219Q7564 316 7619 384Q7674 453 7779 453Q7884 453 7938 384Q7992 316 7992 222ZM7933 223Q7933 301 7893 352Q7853 404 7777 404Q7701 404 7661 351Q7622 299 7622 222Q7622 146 7661 92Q7701 39 7777 39Q7853 39 7893 92Q7933 145 7933 223ZM8502 222Q8502 122 8444 56Q8386 -10 8285 -10Q8185 -10 8129 55Q8074 121 8074 219Q8074 316 8129 384Q8184 453 8289 453Q8394 453 8448 384Q8502 316 8502 222ZM8443 223Q8443 301 8403 352Q8363 404 8287 404Q8211 404 8171 351Q8132 299 8132 222Q8132 146 8171 92Q8211 39 8287 39Q8363 39 8403 92Q8443 145 8443 223ZM9394 46L9394 0L9175 0L9175 46L9257 46L9257 267Q9257 343 9226 373Q9196 404 9150 404Q9084 404 9048 354Q9013 304 9011 263L9011 46L9093 46L9093 0L8874 0L8874 46L8956 46L8956 267Q8956 344 8925 374Q8895 404 8850 404Q8784 404 8748 355Q8713 306 8711 265L8711 46L8791 46L8791 0L8573 0L8573 46L8656 46L8656 397L8572 397L8572 444L8711 444L8711 357Q8733 398 8770 425Q8807 453 8863 453Q8915 453 8953 426Q8991 400 9004 343Q9025 390 9065 421Q9105 453 9164 453Q9229 453 9270 412Q9312 371 9312 280L9312 46L9394 46ZM9791 126Q9791 64 9738 27Q9686 -10 9609 -10Q9562 -10 9516 3Q9471 17 9447 34L9459 128L9504 124L9500 64Q9547 39 9607 39Q9656 39 9695 58Q9735 78 9735 120Q9735 160 9706 177Q9678 194 9636 201Q9594 209 9552 218Q9511 227 9482 251Q9454 275 9454 326Q9454 394 9503 423Q9552 453 9610 453Q9656 453 9696 440Q9737 427 9762 412L9772 310L9726 304L9714 379Q9693 390 9670 397Q9647 404 9617 404Q9570 404 9541 387Q9512 370 9512 332Q9512 294 9540 278Q9568 263 9610 256Q9652 249 9693 239Q9735 229 9763 204Q9791 179 9791 126ZM9919 650L9983 650L9972 181L9929 181L9919 650ZM9990 0L9917 0L9917 84L9990 84L9990 0Z" fill="#292929" style=""></path></g></g></g></svg>