<svg version="1.1" xmlns="http://www.w3.org/2000/svg" viewBox="-240.2 -1027.2 8872.672137894515 2374.35"><desc>Created with Snap</desc><defs></defs><g><rect x="-240.2" y="-1027.2" width="8872.672137894515" height="2374.35" fill="#d90429" style=""></rect><g transform="matrix(23.1262,0,0,23.1262,6231.4493,-996.335)"><g><path d="M90.527,50.653c0.012-0.216,0.012-0.445,0.012-0.661c0-21.01-18.15-38.043-40.539-38.043   c-22.389,0-40.541,17.033-40.541,38.043c0,0.216,0,0.445,0.013,0.661C9.46,50.762,9.46,50.883,9.46,51.004   c0,0.609,0.041,1.215,0.121,1.809c0.878,7.668,7.396,13.617,15.304,13.617c4.4,0,8.354-1.836,11.161-4.789v26.396h13.009   c0.311,0,0.635,0.014,0.945,0.014c0.324,0,0.633-0.014,0.957-0.014h12.833V61.633c-0.002,0-0.004,0.002-0.006,0.004l0.088-8.85   c0,0,3.73-5.223,5.906-1.432c1.973,3.434-1.371,6.744-5.893,10.203l0,0c2.807,2.996,6.816,4.871,11.229,4.871   c7.895,0,14.412-5.936,15.316-13.588v-0.029c0.068-0.594,0.107-1.199,0.107-1.809c0-0.108,0-0.203-0.012-0.309V50.653z    M30.045,51.355c2.176-3.791,5.907,1.432,5.907,1.432l0.088,8.85C31.466,58.15,28.058,54.816,30.045,51.355z" fill="#ffffff" style=""></path></g><desc>Created with Snap</desc><defs></defs></g><g><g transform="matrix(1,0,0,-1,0,0)"><path d="M565 357Q560 363 565 373Q571 383 571 391Q571 396 569 401Q567 406 567 411Q567 423 563 427Q561 432 563 433Q566 435 569 437Q569 442 569 447Q570 453 562 451Q563 454 563 456Q564 458 567 460Q571 473 573 481Q576 490 571 499Q574 510 576 521Q578 533 578 544Q578 551 575 557Q573 564 573 571Q573 576 575 579Q577 583 578 588Q579 590 576 593Q573 597 573 600Q573 605 575 607Q578 609 578 614Q578 628 571 636Q573 643 576 644Q580 645 580 650Q580 655 578 660Q577 665 577 670Q577 684 583 697Q589 710 601 717L644 717Q650 711 656 706Q662 702 665 694Q668 684 666 672Q664 661 672 653Q667 635 669 619Q672 603 672 585Q672 575 670 565Q669 556 669 546Q669 541 670 535Q672 530 672 525Q672 518 663 513Q663 504 659 499Q665 486 663 481Q662 477 661 472Q660 468 661 463Q662 458 667 450Q667 447 665 443Q664 440 661 438Q661 425 661 413Q661 401 659 389Q658 384 655 379Q652 375 652 370Q654 358 656 354Q659 351 654 347Q655 341 655 338Q655 335 654 333Q654 332 653 330Q653 328 652 322Q654 316 654 312Q648 297 648 289Q649 281 653 275Q647 269 644 259Q641 249 646 241Q643 236 639 231Q636 227 641 220Q641 215 638 212Q636 209 631 206Q635 198 628 191Q628 187 632 186Q636 186 635 177Q630 175 630 168Q631 162 625 160Q626 156 625 152Q624 149 624 145Q616 143 614 137Q613 131 607 128Q606 120 604 118Q603 116 605 106Q598 103 593 98Q589 93 583 89Q581 75 571 68Q562 62 554 52Q548 50 546 53Q545 56 543 56Q549 55 548 52Q547 49 544 47Q542 45 539 42Q537 39 537 35Q528 33 520 29Q513 25 505 19Q497 20 493 18Q489 17 485 15Q482 13 477 11Q473 10 466 11Q456 3 442 1Q429 0 418 -7Q408 -2 399 -6Q391 -9 382 -9Q373 -10 367 -11Q361 -11 356 -11Q351 -11 346 -12Q342 -13 338 -18Q327 -13 313 -12Q300 -10 285 -9Q271 -7 258 -4Q246 0 239 8L204 17Q202 18 200 21Q198 24 196 26Q193 28 190 28Q187 29 185 31Q181 33 176 37Q171 42 169 45Q164 46 159 48Q155 51 150 52Q145 63 137 72Q130 81 119 87Q116 98 106 104Q106 111 104 115Q102 120 99 123Q97 127 94 130Q91 134 88 139Q85 147 85 155Q86 164 84 172Q83 175 81 178Q80 181 80 185Q78 195 80 205Q82 215 75 223Q73 228 76 229Q79 231 80 233Q80 237 79 241Q78 245 77 249Q76 265 76 285Q77 306 69 320Q69 330 71 339Q73 348 73 357Q73 363 71 369Q69 375 69 381Q69 386 71 390Q73 395 73 399Q73 402 72 404Q71 407 71 409Q71 433 74 458Q78 483 67 505Q69 536 72 566Q75 596 75 626Q75 631 74 635Q73 639 73 643Q73 648 75 652Q77 656 77 661Q79 671 79 681Q79 692 81 700Q84 709 91 714Q98 720 113 720Q124 720 134 716Q145 713 152 705Q153 698 152 691Q152 685 152 678Q152 669 155 660Q158 652 158 643Q158 639 156 636Q154 634 154 628Q154 621 157 615Q161 609 161 603Q161 598 160 586Q159 575 157 572Q156 564 154 561Q153 558 153 554Q153 549 153 545Q154 542 154 537Q154 532 152 528Q150 524 150 520Q150 517 151 514Q152 511 152 508Q152 503 150 499Q148 496 148 491Q147 483 148 474Q150 465 150 457Q150 452 148 448Q147 444 147 440Q147 434 148 428Q150 423 150 418Q150 413 148 409Q147 405 147 400Q147 392 150 386Q153 380 153 372Q152 363 154 360Q156 358 158 356Q158 350 157 348Q156 346 156 344Q156 342 157 340Q158 338 163 332Q161 327 160 319Q159 312 166 309Q159 293 159 280Q159 272 162 264Q165 256 165 248Q165 245 164 242Q163 240 163 237Q164 220 163 220Q163 220 166 211Q168 204 167 196Q167 189 169 182Q175 163 189 150Q203 138 210 120Q222 110 236 103Q251 97 259 83Q263 83 266 82Q269 81 273 80Q277 81 279 82Q281 84 284 78Q291 79 294 79Q298 79 300 78Q302 78 304 77Q307 76 312 76Q316 76 319 77Q322 79 325 79Q343 72 355 75Q368 78 382 80Q390 81 392 74Q401 74 410 75Q420 77 428 83Q438 80 447 84Q456 89 466 89Q470 94 476 97Q483 100 488 102Q494 105 498 109Q503 113 505 121L515 121Q515 123 519 129Q523 135 527 142Q532 149 536 154Q540 160 541 161Q541 177 546 182Q552 188 551 202Q558 202 558 204Q558 206 560 208Q559 211 558 219Q558 228 556 229Q556 234 557 236Q559 238 562 241Q560 246 560 252Q561 259 564 263Q562 276 563 281Q565 286 565 291Q565 295 561 296Q558 298 556 304Q557 309 561 314Q565 319 565 322Q565 328 563 333Q562 339 567 344Q567 346 563 349Q560 352 565 357ZM1489 28Q1488 25 1485 23Q1482 21 1480 19Q1478 17 1477 14Q1476 11 1479 7Q1477 2 1466 1Q1455 1 1449 -6Q1445 -8 1441 -7Q1438 -5 1434 -8Q1425 -3 1418 4Q1412 12 1401 15Q1400 22 1395 26Q1390 30 1390 36Q1391 49 1388 50Q1385 52 1383 57Q1381 60 1381 63Q1381 67 1377 68Q1379 73 1381 78Q1384 83 1386 88Q1381 99 1373 109Q1365 119 1365 132Q1365 137 1365 141Q1366 145 1366 150Q1366 154 1364 157Q1363 160 1366 164Q1364 170 1361 175Q1359 181 1357 187Q1360 188 1361 194Q1362 201 1361 208Q1360 216 1359 223Q1358 231 1358 234Q1358 238 1359 242Q1360 246 1360 250Q1364 267 1360 279Q1356 291 1356 300Q1356 314 1357 327Q1358 340 1349 354Q1334 347 1331 333L1320 333Q1317 330 1317 328Q1317 327 1318 323Q1314 322 1313 319Q1312 316 1311 313Q1310 310 1306 304Q1302 299 1297 293Q1293 287 1288 281Q1284 275 1282 272Q1281 266 1279 260Q1278 255 1279 249L1267 249Q1264 238 1264 228Q1253 206 1248 193Q1243 180 1232 168Q1234 162 1232 160Q1230 158 1230 153Q1222 145 1217 139Q1212 133 1210 122Q1205 120 1203 116Q1202 113 1200 109Q1199 106 1196 103Q1194 100 1188 99Q1193 92 1192 86Q1192 81 1195 75Q1195 71 1191 70Q1187 70 1185 64Q1183 59 1183 54Q1184 49 1183 44Q1181 39 1180 38Q1180 38 1179 37Q1178 36 1178 33Q1178 31 1178 23Q1170 21 1173 13Q1168 15 1167 11Q1166 8 1167 4Q1162 5 1157 4Q1152 4 1149 -1Q1145 2 1140 0Q1136 -1 1131 -1Q1125 5 1119 4Q1113 3 1105 3Q1100 14 1093 21Q1086 28 1084 42Q1079 47 1076 53Q1074 59 1069 64Q1069 75 1065 85Q1061 96 1051 102Q1050 111 1046 118Q1042 126 1037 133Q1037 140 1034 145Q1032 151 1029 155Q1026 160 1023 165Q1020 170 1019 176Q1015 178 1012 181Q1010 185 1005 187Q1004 192 1002 195Q1001 199 999 203Q988 213 982 226Q976 239 965 248Q966 251 964 253Q963 255 962 258Q946 271 937 289Q929 308 916 317Q906 329 901 336Q897 343 889 348Q881 349 881 345Q881 341 883 336Q883 333 882 330Q881 327 881 324Q881 321 882 318Q883 316 883 313Q883 296 880 279Q878 263 878 246Q878 244 879 241Q880 238 880 235Q880 231 878 228Q877 225 877 220Q877 211 878 201Q880 192 881 183Q885 181 886 178Q888 175 890 172Q889 165 889 158Q890 151 893 145Q891 141 889 138Q887 135 891 131Q891 126 894 124Q897 122 900 120Q903 119 905 117Q908 115 908 110Q908 104 903 100Q899 97 895 93Q902 77 903 61Q900 59 897 57Q894 56 892 52Q882 41 884 39Q887 38 886 35Q875 30 867 21Q859 13 847 11Q840 17 834 20Q829 23 819 21Q815 24 814 27Q813 31 807 31Q807 39 803 42Q800 45 797 51Q799 61 796 70Q794 80 794 90Q794 100 795 109Q797 119 797 129Q797 134 795 138Q794 142 794 147Q794 150 795 153Q797 156 797 159Q797 162 795 164Q793 167 792 170Q790 176 789 182Q789 188 789 194Q789 199 791 203Q794 207 794 212Q794 221 792 230Q791 240 791 250Q791 257 794 261Q797 266 797 271Q797 279 795 287Q794 295 792 303Q794 319 794 323Q794 328 795 330Q797 333 798 335Q800 337 800 342Q800 347 798 352Q797 358 797 363Q797 375 799 386Q802 398 802 410Q802 415 800 418Q798 421 797 425Q800 427 799 431Q798 436 798 439Q800 452 797 452Q794 453 792 455Q794 465 798 470Q802 476 803 490Q803 497 802 504Q802 512 806 519Q815 521 818 528Q821 536 823 544Q830 543 835 550Q839 549 844 550Q850 552 857 553Q864 554 873 552Q882 551 893 545L893 533Q902 526 904 513Q907 501 911 491Q913 486 917 477Q922 468 927 459Q933 450 939 442Q945 435 950 433Q950 428 952 423Q955 419 955 414Q958 410 960 405Q962 401 967 398Q967 388 972 383Q978 378 980 369Q983 367 986 366Q990 366 993 364Q997 354 1005 348Q1013 342 1020 334Q1027 325 1033 315Q1039 306 1049 300Q1049 292 1051 285Q1054 279 1062 277Q1060 270 1065 267Q1071 265 1074 260Q1072 253 1075 254Q1078 255 1078 250Q1086 242 1086 238Q1087 235 1089 233Q1093 228 1096 223Q1099 219 1102 214Q1106 210 1109 205Q1112 201 1113 201Q1111 189 1116 181Q1121 173 1128 171Q1135 170 1141 177Q1148 185 1150 205Q1161 210 1162 220Q1163 230 1165 240Q1170 244 1172 249Q1175 254 1180 257Q1182 262 1181 263Q1180 264 1178 268Q1182 269 1182 272Q1183 276 1183 279Q1189 280 1188 284Q1188 288 1196 289Q1194 297 1196 299Q1198 302 1198 309Q1202 311 1201 312Q1201 314 1208 312Q1207 315 1207 320Q1208 325 1205 327Q1207 329 1211 328Q1215 328 1217 328Q1218 339 1224 345Q1231 352 1232 363Q1248 371 1253 380Q1258 390 1267 396Q1266 402 1267 405Q1269 409 1271 411Q1273 414 1275 417Q1277 420 1277 425Q1285 427 1287 434Q1289 442 1297 446Q1295 452 1299 464Q1303 477 1311 477Q1312 491 1318 499Q1324 507 1326 519Q1332 519 1338 522Q1340 530 1346 533Q1352 537 1355 544Q1372 546 1379 552Q1386 559 1396 554Q1400 549 1401 547Q1402 545 1400 539L1413 539Q1415 534 1415 531Q1416 529 1415 524Q1417 520 1420 518Q1424 516 1425 514Q1423 503 1426 491Q1429 479 1424 468Q1431 466 1429 458Q1428 450 1434 446Q1432 443 1431 440Q1430 438 1429 435Q1434 434 1434 432Q1434 431 1433 428Q1433 426 1433 422Q1434 418 1440 411Q1440 409 1437 408Q1435 407 1435 402Q1437 400 1438 397Q1440 394 1442 392Q1437 381 1441 375Q1445 369 1445 362Q1442 348 1444 344Q1447 340 1439 337Q1442 327 1444 316Q1447 306 1447 295Q1447 290 1446 284Q1445 279 1445 274Q1445 269 1447 266Q1450 263 1450 261Q1450 258 1448 257Q1446 256 1448 251Q1448 240 1444 231Q1441 223 1449 214Q1446 207 1448 200Q1450 193 1450 185Q1453 183 1454 180Q1456 178 1458 176Q1454 170 1457 165Q1460 160 1460 154Q1457 152 1457 146Q1458 141 1460 135Q1463 129 1466 123Q1469 117 1470 114Q1469 100 1475 97Q1476 93 1476 89Q1476 85 1481 83Q1479 76 1482 72Q1485 68 1489 63Q1490 46 1487 40Q1484 35 1489 28ZM2188 71Q2187 66 2179 63Q2171 61 2166 56Q2166 50 2163 47Q2160 45 2161 37Q2156 35 2151 28Q2146 21 2141 21Q2134 21 2129 24Q2125 28 2116 26Q2108 41 2094 47Q2087 60 2080 72Q2073 84 2067 97Q2052 110 2043 114Q2034 119 2026 117Q2019 116 2010 110Q2002 104 1987 95Q1977 95 1959 95Q1942 95 1934 99Q1931 100 1928 101Q1926 103 1923 103Q1919 103 1915 101Q1912 100 1908 100Q1904 100 1901 101Q1898 102 1894 103Q1890 103 1887 102Q1885 102 1882 103Q1876 100 1873 97Q1871 95 1867 95Q1853 100 1837 102Q1822 104 1808 112Q1800 114 1799 109Q1798 105 1793 105Q1782 106 1773 104Q1764 103 1753 103Q1748 103 1742 104Q1737 105 1732 105Q1726 105 1721 102Q1716 100 1711 100Q1707 100 1704 101Q1701 103 1696 103Q1691 103 1687 100Q1684 98 1680 98Q1675 98 1671 98Q1667 99 1663 99Q1654 99 1650 95Q1646 92 1644 86Q1643 81 1642 75Q1641 70 1636 66Q1638 51 1635 42Q1632 33 1623 21Q1610 20 1598 17Q1586 15 1573 15Q1565 15 1562 20Q1559 25 1554 30Q1547 36 1543 42Q1540 48 1535 56Q1536 60 1539 62Q1543 65 1546 67Q1544 73 1545 77Q1547 81 1550 85Q1553 89 1555 93Q1558 98 1558 103Q1558 109 1558 111Q1559 113 1560 114Q1561 115 1562 116Q1563 117 1565 121Q1567 125 1566 128Q1565 132 1567 136Q1571 145 1576 152Q1582 160 1587 168Q1589 173 1590 177Q1592 181 1594 185Q1597 193 1605 200L1605 213Q1608 217 1610 220Q1612 223 1617 225Q1616 237 1623 245Q1630 254 1632 265Q1646 273 1655 287Q1665 302 1662 319Q1670 322 1674 330Q1678 338 1686 341Q1686 349 1688 355Q1691 361 1691 369Q1700 374 1703 382Q1707 391 1711 399Q1712 401 1715 406Q1718 412 1721 418Q1724 424 1726 428Q1729 433 1729 435Q1747 465 1750 491Q1756 497 1758 499Q1761 502 1762 504Q1763 507 1763 510Q1763 514 1765 521Q1768 520 1770 523Q1773 527 1776 532Q1780 537 1785 541Q1791 546 1800 546Q1810 546 1819 544Q1828 542 1838 541Q1843 535 1848 530Q1854 525 1859 518L1859 506Q1867 496 1874 485Q1882 475 1894 470Q1893 459 1898 457Q1904 456 1911 451Q1910 442 1912 437Q1915 433 1918 427Q1922 422 1925 417Q1928 413 1929 411Q1934 402 1941 402Q1940 397 1944 395Q1948 394 1946 387Q1955 378 1968 373Q1968 366 1973 360Q1978 355 1983 352Q1984 347 1987 345Q1990 343 1993 341Q1998 338 2000 333Q2003 328 2008 326Q2009 317 2018 305Q2027 294 2037 282Q2047 271 2055 261Q2063 252 2062 247Q2070 242 2077 236Q2085 231 2095 227Q2095 219 2094 215Q2094 212 2095 209Q2096 207 2099 205Q2102 203 2109 198Q2108 193 2113 186Q2115 182 2116 177Q2117 173 2120 168Q2125 160 2133 155Q2142 151 2149 145Q2154 134 2157 123Q2160 112 2164 101Q2171 94 2179 91Q2180 86 2181 80Q2183 74 2188 71ZM1956 259Q1950 260 1947 263Q1944 267 1939 268Q1940 281 1934 282Q1928 283 1921 290Q1921 295 1917 296Q1913 298 1911 302Q1907 313 1906 314Q1905 316 1900 319Q1896 321 1896 324Q1896 327 1888 331Q1884 333 1880 334Q1876 335 1874 339Q1868 350 1859 362Q1851 375 1849 389Q1839 395 1834 403Q1830 411 1816 413Q1808 403 1805 391Q1802 380 1792 372L1792 359Q1787 353 1781 346Q1776 339 1777 331Q1769 329 1769 323Q1769 317 1765 312Q1763 309 1760 308Q1758 307 1758 302Q1753 292 1751 286Q1749 280 1746 275Q1735 270 1737 266Q1739 262 1736 255Q1732 248 1726 245Q1721 243 1723 232Q1712 222 1704 209Q1697 197 1699 182Q1709 183 1719 182Q1729 181 1739 181Q1750 181 1759 185Q1769 189 1780 189Q1793 189 1806 182Q1819 176 1831 182Q1836 180 1839 178Q1842 176 1847 174Q1880 168 1914 179Q1924 175 1929 174Q1932 176 1940 177Q1948 178 1956 179Q1965 180 1971 182Q1978 184 1977 187Q1984 191 1988 191Q1993 191 1993 202Q1993 208 1988 215Q1983 222 1976 229Q1969 237 1963 244Q1957 252 1956 259ZM2944 28Q2943 25 2940 23Q2937 21 2935 19Q2933 17 2932 14Q2931 11 2934 7Q2932 2 2921 1Q2910 1 2904 -6Q2900 -8 2896 -7Q2893 -5 2889 -8Q2880 -3 2873 4Q2867 12 2856 15Q2855 22 2850 26Q2845 30 2845 36Q2846 49 2843 50Q2840 52 2838 57Q2836 60 2836 63Q2836 67 2832 68Q2834 73 2836 78Q2839 83 2841 88Q2836 99 2828 109Q2820 119 2820 132Q2820 137 2820 141Q2821 145 2821 150Q2821 154 2819 157Q2818 160 2821 164Q2819 170 2816 175Q2814 181 2812 187Q2815 188 2816 194Q2817 201 2816 208Q2815 216 2814 223Q2813 231 2813 234Q2813 238 2814 242Q2815 246 2815 250Q2819 267 2815 279Q2811 291 2811 300Q2811 314 2812 327Q2813 340 2804 354Q2789 347 2786 333L2775 333Q2772 330 2772 328Q2772 327 2773 323Q2769 322 2768 319Q2767 316 2766 313Q2765 310 2761 304Q2757 299 2752 293Q2748 287 2743 281Q2739 275 2737 272Q2736 266 2734 260Q2733 255 2734 249L2722 249Q2719 238 2719 228Q2708 206 2703 193Q2698 180 2687 168Q2689 162 2687 160Q2685 158 2685 153Q2677 145 2672 139Q2667 133 2665 122Q2660 120 2658 116Q2657 113 2655 109Q2654 106 2651 103Q2649 100 2643 99Q2648 92 2647 86Q2647 81 2650 75Q2650 71 2646 70Q2642 70 2640 64Q2638 59 2638 54Q2639 49 2638 44Q2636 39 2635 38Q2635 38 2634 37Q2633 36 2633 33Q2633 31 2633 23Q2625 21 2628 13Q2623 15 2622 11Q2621 8 2622 4Q2617 5 2612 4Q2607 4 2604 -1Q2600 2 2595 0Q2591 -1 2586 -1Q2580 5 2574 4Q2568 3 2560 3Q2555 14 2548 21Q2541 28 2539 42Q2534 47 2531 53Q2529 59 2524 64Q2524 75 2520 85Q2516 96 2506 102Q2505 111 2501 118Q2497 126 2492 133Q2492 140 2489 145Q2487 151 2484 155Q2481 160 2478 165Q2475 170 2474 176Q2470 178 2467 181Q2465 185 2460 187Q2459 192 2457 195Q2456 199 2454 203Q2443 213 2437 226Q2431 239 2420 248Q2421 251 2419 253Q2418 255 2417 258Q2401 271 2392 289Q2384 308 2371 317Q2361 329 2356 336Q2352 343 2344 348Q2336 349 2336 345Q2336 341 2338 336Q2338 333 2337 330Q2336 327 2336 324Q2336 321 2337 318Q2338 316 2338 313Q2338 296 2335 279Q2333 263 2333 246Q2333 244 2334 241Q2335 238 2335 235Q2335 231 2333 228Q2332 225 2332 220Q2332 211 2333 201Q2335 192 2336 183Q2340 181 2341 178Q2343 175 2345 172Q2344 165 2344 158Q2345 151 2348 145Q2346 141 2344 138Q2342 135 2346 131Q2346 126 2349 124Q2352 122 2355 120Q2358 119 2360 117Q2363 115 2363 110Q2363 104 2358 100Q2354 97 2350 93Q2357 77 2358 61Q2355 59 2352 57Q2349 56 2347 52Q2337 41 2339 39Q2342 38 2341 35Q2330 30 2322 21Q2314 13 2302 11Q2295 17 2289 20Q2284 23 2274 21Q2270 24 2269 27Q2268 31 2262 31Q2262 39 2258 42Q2255 45 2252 51Q2254 61 2251 70Q2249 80 2249 90Q2249 100 2250 109Q2252 119 2252 129Q2252 134 2250 138Q2249 142 2249 147Q2249 150 2250 153Q2252 156 2252 159Q2252 162 2250 164Q2248 167 2247 170Q2245 176 2244 182Q2244 188 2244 194Q2244 199 2246 203Q2249 207 2249 212Q2249 221 2247 230Q2246 240 2246 250Q2246 257 2249 261Q2252 266 2252 271Q2252 279 2250 287Q2249 295 2247 303Q2249 319 2249 323Q2249 328 2250 330Q2252 333 2253 335Q2255 337 2255 342Q2255 347 2253 352Q2252 358 2252 363Q2252 375 2254 386Q2257 398 2257 410Q2257 415 2255 418Q2253 421 2252 425Q2255 427 2254 431Q2253 436 2253 439Q2255 452 2252 452Q2249 453 2247 455Q2249 465 2253 470Q2257 476 2258 490Q2258 497 2257 504Q2257 512 2261 519Q2270 521 2273 528Q2276 536 2278 544Q2285 543 2290 550Q2294 549 2299 550Q2305 552 2312 553Q2319 554 2328 552Q2337 551 2348 545L2348 533Q2357 526 2359 513Q2362 501 2366 491Q2368 486 2372 477Q2377 468 2382 459Q2388 450 2394 442Q2400 435 2405 433Q2405 428 2407 423Q2410 419 2410 414Q2413 410 2415 405Q2417 401 2422 398Q2422 388 2427 383Q2433 378 2435 369Q2438 367 2441 366Q2445 366 2448 364Q2452 354 2460 348Q2468 342 2475 334Q2482 325 2488 315Q2494 306 2504 300Q2504 292 2506 285Q2509 279 2517 277Q2515 270 2520 267Q2526 265 2529 260Q2527 253 2530 254Q2533 255 2533 250Q2541 242 2541 238Q2542 235 2544 233Q2548 228 2551 223Q2554 219 2557 214Q2561 210 2564 205Q2567 201 2568 201Q2566 189 2571 181Q2576 173 2583 171Q2590 170 2596 177Q2603 185 2605 205Q2616 210 2617 220Q2618 230 2620 240Q2625 244 2627 249Q2630 254 2635 257Q2637 262 2636 263Q2635 264 2633 268Q2637 269 2637 272Q2638 276 2638 279Q2644 280 2643 284Q2643 288 2651 289Q2649 297 2651 299Q2653 302 2653 309Q2657 311 2656 312Q2656 314 2663 312Q2662 315 2662 320Q2663 325 2660 327Q2662 329 2666 328Q2670 328 2672 328Q2673 339 2679 345Q2686 352 2687 363Q2703 371 2708 380Q2713 390 2722 396Q2721 402 2722 405Q2724 409 2726 411Q2728 414 2730 417Q2732 420 2732 425Q2740 427 2742 434Q2744 442 2752 446Q2750 452 2754 464Q2758 477 2766 477Q2767 491 2773 499Q2779 507 2781 519Q2787 519 2793 522Q2795 530 2801 533Q2807 537 2810 544Q2827 546 2834 552Q2841 559 2851 554Q2855 549 2856 547Q2857 545 2855 539L2868 539Q2870 534 2870 531Q2871 529 2870 524Q2872 520 2875 518Q2879 516 2880 514Q2878 503 2881 491Q2884 479 2879 468Q2886 466 2884 458Q2883 450 2889 446Q2887 443 2886 440Q2885 438 2884 435Q2889 434 2889 432Q2889 431 2888 428Q2888 426 2888 422Q2889 418 2895 411Q2895 409 2892 408Q2890 407 2890 402Q2892 400 2893 397Q2895 394 2897 392Q2892 381 2896 375Q2900 369 2900 362Q2897 348 2899 344Q2902 340 2894 337Q2897 327 2899 316Q2902 306 2902 295Q2902 290 2901 284Q2900 279 2900 274Q2900 269 2902 266Q2905 263 2905 261Q2905 258 2903 257Q2901 256 2903 251Q2903 240 2899 231Q2896 223 2904 214Q2901 207 2903 200Q2905 193 2905 185Q2908 183 2909 180Q2911 178 2913 176Q2909 170 2912 165Q2915 160 2915 154Q2912 152 2912 146Q2913 141 2915 135Q2918 129 2921 123Q2924 117 2925 114Q2924 100 2930 97Q2931 93 2931 89Q2931 85 2936 83Q2934 76 2937 72Q2940 68 2944 63Q2945 46 2942 40Q2939 35 2944 28ZM3156 49Q3154 46 3152 43Q3150 41 3149 38Q3143 36 3139 33Q3135 31 3128 31Q3115 18 3101 11Q3095 16 3087 17Q3080 19 3072 18Q3072 19 3069 22Q3066 26 3062 29Q3059 33 3056 36Q3053 40 3052 40Q3052 52 3049 64Q3047 76 3047 87Q3047 95 3050 103Q3053 111 3053 119Q3053 128 3052 137Q3052 146 3052 155Q3052 159 3053 162Q3054 165 3054 169Q3054 174 3051 178Q3049 183 3049 188Q3049 193 3050 197Q3052 201 3052 206Q3052 213 3047 218Q3048 223 3050 226Q3052 229 3054 234Q3047 254 3052 270Q3057 286 3057 306Q3057 310 3055 312Q3053 315 3052 319Q3057 326 3054 330Q3051 335 3049 340Q3052 343 3052 351Q3052 359 3052 363Q3053 368 3051 370Q3050 372 3049 377Q3054 383 3050 395Q3047 407 3047 415Q3047 419 3047 426Q3048 434 3048 442Q3048 450 3048 457Q3048 464 3047 468Q3045 471 3043 474Q3041 477 3041 481Q3041 486 3043 492Q3045 498 3044 503Q3049 506 3051 507Q3053 508 3059 506Q3061 513 3066 520Q3071 527 3079 527Q3083 527 3086 524Q3089 521 3092 519Q3095 517 3098 516Q3101 516 3104 521Q3110 519 3113 514Q3116 510 3124 509Q3126 502 3130 495Q3134 489 3134 482Q3134 477 3132 472Q3131 468 3131 463Q3131 460 3132 457Q3134 454 3134 450Q3134 444 3132 438Q3131 432 3131 425Q3131 419 3134 415Q3137 412 3137 407Q3137 399 3136 397Q3136 395 3141 388Q3142 383 3140 380Q3139 377 3139 374Q3139 369 3141 366Q3144 363 3144 360Q3144 357 3142 354Q3141 351 3141 348Q3141 323 3144 301Q3145 295 3147 289Q3149 284 3149 279Q3149 273 3147 267Q3146 262 3146 256Q3146 244 3147 232Q3149 221 3147 209Q3149 204 3149 199Q3149 195 3154 193Q3152 188 3149 186Q3147 184 3149 177Q3147 169 3151 165Q3155 161 3155 157Q3155 156 3152 154Q3149 153 3149 148Q3149 144 3151 141Q3154 139 3154 135Q3154 130 3153 125Q3152 120 3152 115Q3152 104 3155 92Q3158 80 3148 70Q3153 65 3152 59Q3151 53 3156 49ZM4449 47Q4451 42 4446 42Q4442 42 4439 42Q4442 37 4440 34Q4439 31 4436 28Q4434 26 4431 23Q4429 20 4429 16Q4413 18 4410 15Q4407 13 4399 1Q4389 -1 4382 -5Q4374 -4 4370 -1Q4367 3 4356 1Q4358 12 4347 12Q4348 19 4347 25Q4347 31 4339 34Q4345 40 4341 47Q4337 55 4338 63Q4338 65 4339 67Q4340 70 4340 73Q4336 81 4338 83Q4341 85 4341 88Q4345 108 4345 123Q4345 139 4345 153Q4345 157 4343 158Q4341 159 4338 161Q4338 166 4341 167Q4345 168 4346 172Q4347 179 4344 185Q4342 191 4343 198Q4346 212 4343 217Q4341 223 4342 228Q4342 232 4343 235Q4345 238 4345 241Q4345 245 4344 248Q4343 251 4343 254Q4343 259 4344 264Q4345 269 4345 274Q4345 279 4344 283Q4343 288 4340 291Q4345 300 4343 317Q4341 334 4343 345Q4346 357 4343 360Q4341 363 4342 367Q4342 371 4343 374Q4345 377 4345 381Q4345 386 4342 390Q4340 394 4341 399Q4345 420 4340 431Q4336 442 4341 454Q4341 458 4339 460Q4337 462 4335 465Q4336 475 4333 477Q4331 480 4329 488Q4326 503 4328 518Q4331 533 4327 547Q4325 552 4322 555Q4319 558 4321 564Q4316 562 4312 558Q4308 555 4303 553Q4303 545 4300 540Q4298 536 4300 527Q4297 521 4290 517L4284 497Q4283 495 4280 494Q4278 493 4276 491L4271 478Q4270 475 4270 472Q4271 470 4271 468Q4271 465 4268 460Q4266 455 4262 449Q4258 444 4254 439Q4251 434 4250 432Q4244 422 4241 420Q4238 419 4237 417Q4235 415 4235 411Q4235 408 4234 406Q4232 401 4226 392Q4221 384 4216 382Q4216 378 4215 373Q4214 369 4208 369Q4210 358 4204 351Q4198 344 4202 337Q4197 337 4194 334Q4192 332 4190 329Q4188 326 4186 323Q4184 320 4180 319Q4182 313 4180 305Q4179 298 4171 296Q4170 291 4169 288Q4168 285 4170 280Q4163 278 4163 270Q4163 263 4155 257Q4157 247 4154 243Q4152 239 4151 231Q4145 229 4136 216Q4128 204 4126 198Q4117 194 4117 191Q4117 188 4116 185Q4114 183 4112 181Q4110 179 4108 177Q4105 170 4104 161Q4104 153 4104 146Q4100 146 4098 143Q4097 140 4094 138Q4094 133 4093 125Q4093 117 4088 114Q4092 106 4087 95Q4082 85 4084 77Q4076 72 4068 64Q4061 57 4052 52Q4044 47 4035 46Q4026 45 4016 53Q4013 54 4011 52Q4009 51 4006 51Q4001 51 3995 53Q3990 55 3985 53Q3984 63 3979 71Q3974 80 3975 91Q3975 95 3977 98Q3980 101 3980 105Q3981 113 3978 120Q3976 128 3970 133Q3969 141 3968 150Q3967 159 3960 164Q3961 176 3956 185Q3951 194 3943 202Q3943 204 3940 211Q3938 218 3934 225Q3931 233 3927 239Q3924 246 3923 248Q3921 252 3919 257Q3918 262 3912 261Q3913 275 3905 277Q3897 280 3892 287Q3886 295 3882 304Q3878 314 3870 322Q3869 331 3863 336Q3858 341 3850 345Q3852 353 3849 355Q3846 358 3846 363Q3843 368 3837 371Q3832 375 3827 378Q3825 390 3816 398Q3807 407 3803 419Q3802 421 3794 427Q3787 434 3785 434Q3787 444 3783 448Q3779 452 3779 460Q3775 463 3773 466Q3772 470 3771 473Q3770 477 3767 480Q3765 483 3759 484Q3757 492 3755 498Q3754 504 3743 506Q3743 512 3740 515Q3738 519 3734 522Q3731 525 3728 528Q3725 532 3725 537Q3728 524 3725 517Q3722 511 3722 505Q3722 500 3725 499Q3729 499 3729 494Q3729 489 3726 484Q3723 479 3723 474Q3725 460 3722 446Q3720 432 3725 428Q3725 423 3722 421Q3719 419 3717 415Q3719 411 3718 407Q3718 404 3719 400Q3720 396 3721 393Q3723 390 3723 387Q3723 376 3720 362Q3717 348 3725 339Q3721 333 3724 327Q3727 321 3727 315Q3726 312 3725 309Q3724 306 3724 302Q3723 294 3723 285Q3724 276 3723 268Q3723 263 3722 258Q3721 254 3721 249Q3721 244 3725 243Q3729 242 3727 237Q3714 224 3718 214Q3723 205 3718 196L3713 185Q3718 174 3716 163Q3714 153 3713 142Q3713 136 3714 130Q3716 124 3715 118Q3713 105 3715 100Q3718 96 3718 91Q3717 85 3714 77Q3711 69 3716 64Q3711 58 3709 50Q3707 43 3703 36Q3709 27 3703 19Q3698 11 3692 5Q3681 5 3677 5Q3673 6 3672 -8Q3667 -9 3661 -13Q3656 -16 3650 -16Q3642 -16 3637 -9Q3633 -2 3622 -3Q3623 0 3622 1Q3622 2 3620 2Q3618 3 3616 5Q3614 7 3614 13Q3604 30 3608 36Q3613 43 3613 50Q3613 54 3612 57Q3611 61 3616 64Q3618 69 3616 71Q3615 74 3615 79Q3622 89 3621 93Q3620 98 3620 101Q3623 109 3621 111Q3619 113 3619 116Q3619 130 3625 144Q3631 158 3631 172Q3631 177 3629 180Q3628 183 3627 187Q3625 200 3626 203Q3628 207 3628 211Q3629 219 3629 226Q3629 234 3629 242Q3631 268 3632 291Q3634 315 3625 341Q3630 346 3631 347Q3633 348 3634 355Q3634 363 3632 372Q3630 381 3635 389Q3635 394 3632 397Q3630 400 3629 404Q3630 416 3635 430Q3633 435 3632 439Q3632 444 3628 447Q3635 481 3637 517Q3638 534 3637 551Q3636 569 3638 586Q3638 589 3640 594Q3643 599 3646 601Q3640 608 3641 611Q3643 615 3642 623Q3643 633 3641 636Q3640 639 3639 643Q3638 647 3638 651Q3639 656 3642 662Q3639 672 3638 676Q3638 680 3639 681Q3641 683 3643 684Q3645 686 3646 692Q3655 687 3663 691Q3672 696 3682 696Q3691 696 3699 693Q3707 690 3717 692Q3718 689 3727 682Q3737 675 3740 673Q3742 662 3750 652Q3759 642 3764 634Q3766 631 3768 630Q3771 629 3773 627Q3773 621 3773 617Q3774 613 3777 608Q3783 599 3785 599Q3787 599 3789 597Q3791 594 3790 592Q3790 590 3795 586Q3800 582 3805 573Q3811 565 3815 560Q3819 555 3820 554Q3822 554 3822 547Q3822 543 3825 542Q3829 541 3831 538Q3833 531 3836 529Q3840 527 3842 523Q3844 521 3843 517Q3842 514 3844 512Q3851 506 3850 505Q3849 504 3849 502Q3848 499 3853 494Q3859 489 3862 488Q3863 485 3863 481Q3864 478 3866 475Q3870 470 3871 472Q3873 475 3873 464Q3873 463 3876 459Q3880 455 3884 450Q3888 445 3892 441Q3896 437 3897 436Q3896 425 3904 420Q3913 415 3920 408Q3924 404 3925 399Q3927 395 3933 393Q3940 374 3943 358Q3952 352 3957 342Q3962 333 3973 328Q3972 321 3976 314Q3981 308 3976 302Q3978 297 3982 296Q3987 296 3990 293Q3992 291 3994 286Q3996 282 3999 278Q4002 275 4008 267Q4012 262 4013 255Q4015 249 4021 244Q4018 238 4020 232Q4023 227 4027 222Q4034 220 4042 229Q4050 239 4050 246Q4061 248 4065 256Q4069 265 4070 276Q4090 291 4091 311Q4103 332 4110 348Q4117 364 4128 378Q4126 386 4130 389Q4135 392 4134 400Q4144 402 4147 410Q4150 418 4158 421Q4156 426 4158 430Q4161 435 4164 439L4165 449Q4163 455 4168 454Q4173 453 4175 456Q4182 465 4184 476Q4187 487 4188 498Q4189 503 4191 503Q4194 504 4196 508Q4200 519 4204 528Q4209 537 4217 545Q4219 550 4217 552Q4215 554 4215 558Q4216 562 4219 564Q4222 566 4219 573Q4224 580 4229 585Q4235 590 4237 599Q4245 601 4246 608Q4248 615 4254 618Q4253 624 4253 627Q4254 631 4255 636Q4263 644 4262 647Q4261 651 4263 655Q4268 658 4271 661Q4274 665 4280 666Q4281 671 4280 672Q4279 674 4281 679Q4289 681 4292 686Q4296 692 4306 692Q4308 694 4308 698Q4309 702 4309 705Q4314 707 4318 707Q4323 707 4328 707Q4340 709 4350 704Q4361 699 4375 699Q4376 691 4378 685Q4381 679 4383 673Q4387 658 4388 649Q4389 640 4400 627L4399 616Q4402 613 4402 609Q4403 605 4408 603Q4403 595 4406 588Q4410 581 4412 573L4406 564Q4408 559 4408 552Q4409 545 4415 543Q4408 535 4412 528Q4416 522 4416 514Q4415 512 4414 509Q4413 507 4413 504Q4413 502 4415 497Q4417 492 4417 487Q4420 468 4420 456Q4421 444 4421 432Q4421 427 4424 425Q4427 423 4430 421Q4431 418 4428 416Q4426 415 4427 410Q4429 408 4429 405Q4430 402 4434 402Q4429 385 4433 370Q4437 356 4436 341Q4435 338 4433 336Q4431 335 4430 332Q4430 329 4431 326Q4432 324 4432 322Q4432 319 4430 316Q4429 314 4429 312Q4429 307 4434 305Q4439 303 4438 300Q4438 298 4434 293Q4430 288 4438 287Q4433 284 4434 278Q4436 272 4432 270Q4439 248 4430 231Q4432 226 4433 221Q4435 216 4441 216Q4438 212 4435 209Q4432 206 4429 202Q4427 197 4431 196Q4435 196 4435 192Q4435 181 4433 179Q4432 178 4432 176Q4432 172 4433 168Q4435 164 4436 160Q4437 157 4436 153Q4435 149 4430 146Q4429 140 4432 134Q4435 129 4434 122Q4434 119 4433 115Q4433 112 4433 109Q4433 107 4432 101Q4432 95 4432 88Q4432 82 4432 76Q4433 71 4434 70Q4436 65 4443 58Q4451 52 4449 47ZM5175 71Q5174 66 5166 63Q5158 61 5153 56Q5153 50 5150 47Q5147 45 5148 37Q5143 35 5138 28Q5133 21 5128 21Q5121 21 5116 24Q5112 28 5103 26Q5095 41 5081 47Q5074 60 5067 72Q5060 84 5054 97Q5039 110 5030 114Q5021 119 5013 117Q5006 116 4997 110Q4989 104 4974 95Q4964 95 4946 95Q4929 95 4921 99Q4918 100 4915 101Q4913 103 4910 103Q4906 103 4902 101Q4899 100 4895 100Q4891 100 4888 101Q4885 102 4881 103Q4877 103 4874 102Q4872 102 4869 103Q4863 100 4860 97Q4858 95 4854 95Q4840 100 4824 102Q4809 104 4795 112Q4787 114 4786 109Q4785 105 4780 105Q4769 106 4760 104Q4751 103 4740 103Q4735 103 4729 104Q4724 105 4719 105Q4713 105 4708 102Q4703 100 4698 100Q4694 100 4691 101Q4688 103 4683 103Q4678 103 4674 100Q4671 98 4667 98Q4662 98 4658 98Q4654 99 4650 99Q4641 99 4637 95Q4633 92 4631 86Q4630 81 4629 75Q4628 70 4623 66Q4625 51 4622 42Q4619 33 4610 21Q4597 20 4585 17Q4573 15 4560 15Q4552 15 4549 20Q4546 25 4541 30Q4534 36 4530 42Q4527 48 4522 56Q4523 60 4526 62Q4530 65 4533 67Q4531 73 4532 77Q4534 81 4537 85Q4540 89 4542 93Q4545 98 4545 103Q4545 109 4545 111Q4546 113 4547 114Q4548 115 4549 116Q4550 117 4552 121Q4554 125 4553 128Q4552 132 4554 136Q4558 145 4563 152Q4569 160 4574 168Q4576 173 4577 177Q4579 181 4581 185Q4584 193 4592 200L4592 213Q4595 217 4597 220Q4599 223 4604 225Q4603 237 4610 245Q4617 254 4619 265Q4633 273 4642 287Q4652 302 4649 319Q4657 322 4661 330Q4665 338 4673 341Q4673 349 4675 355Q4678 361 4678 369Q4687 374 4690 382Q4694 391 4698 399Q4699 401 4702 406Q4705 412 4708 418Q4711 424 4713 428Q4716 433 4716 435Q4734 465 4737 491Q4743 497 4745 499Q4748 502 4749 504Q4750 507 4750 510Q4750 514 4752 521Q4755 520 4757 523Q4760 527 4763 532Q4767 537 4772 541Q4778 546 4787 546Q4797 546 4806 544Q4815 542 4825 541Q4830 535 4835 530Q4841 525 4846 518L4846 506Q4854 496 4861 485Q4869 475 4881 470Q4880 459 4885 457Q4891 456 4898 451Q4897 442 4899 437Q4902 433 4905 427Q4909 422 4912 417Q4915 413 4916 411Q4921 402 4928 402Q4927 397 4931 395Q4935 394 4933 387Q4942 378 4955 373Q4955 366 4960 360Q4965 355 4970 352Q4971 347 4974 345Q4977 343 4980 341Q4985 338 4987 333Q4990 328 4995 326Q4996 317 5005 305Q5014 294 5024 282Q5034 271 5042 261Q5050 252 5049 247Q5057 242 5064 236Q5072 231 5082 227Q5082 219 5081 215Q5081 212 5082 209Q5083 207 5086 205Q5089 203 5096 198Q5095 193 5100 186Q5102 182 5103 177Q5104 173 5107 168Q5112 160 5120 155Q5129 151 5136 145Q5141 134 5144 123Q5147 112 5151 101Q5158 94 5166 91Q5167 86 5168 80Q5170 74 5175 71ZM4943 259Q4937 260 4934 263Q4931 267 4926 268Q4927 281 4921 282Q4915 283 4908 290Q4908 295 4904 296Q4900 298 4898 302Q4894 313 4893 314Q4892 316 4887 319Q4883 321 4883 324Q4883 327 4875 331Q4871 333 4867 334Q4863 335 4861 339Q4855 350 4846 362Q4838 375 4836 389Q4826 395 4821 403Q4817 411 4803 413Q4795 403 4792 391Q4789 380 4779 372L4779 359Q4774 353 4768 346Q4763 339 4764 331Q4756 329 4756 323Q4756 317 4752 312Q4750 309 4747 308Q4745 307 4745 302Q4740 292 4738 286Q4736 280 4733 275Q4722 270 4724 266Q4726 262 4723 255Q4719 248 4713 245Q4708 243 4710 232Q4699 222 4691 209Q4684 197 4686 182Q4696 183 4706 182Q4716 181 4726 181Q4737 181 4746 185Q4756 189 4767 189Q4780 189 4793 182Q4806 176 4818 182Q4823 180 4826 178Q4829 176 4834 174Q4867 168 4901 179Q4911 175 4916 174Q4919 176 4927 177Q4935 178 4943 179Q4952 180 4958 182Q4965 184 4964 187Q4971 191 4975 191Q4980 191 4980 202Q4980 208 4975 215Q4970 222 4963 229Q4956 237 4950 244Q4944 252 4943 259ZM5931 28Q5930 25 5927 23Q5924 21 5922 19Q5920 17 5919 14Q5918 11 5921 7Q5919 2 5908 1Q5897 1 5891 -6Q5887 -8 5883 -7Q5880 -5 5876 -8Q5867 -3 5860 4Q5854 12 5843 15Q5842 22 5837 26Q5832 30 5832 36Q5833 49 5830 50Q5827 52 5825 57Q5823 60 5823 63Q5823 67 5819 68Q5821 73 5823 78Q5826 83 5828 88Q5823 99 5815 109Q5807 119 5807 132Q5807 137 5807 141Q5808 145 5808 150Q5808 154 5806 157Q5805 160 5808 164Q5806 170 5803 175Q5801 181 5799 187Q5802 188 5803 194Q5804 201 5803 208Q5802 216 5801 223Q5800 231 5800 234Q5800 238 5801 242Q5802 246 5802 250Q5806 267 5802 279Q5798 291 5798 300Q5798 314 5799 327Q5800 340 5791 354Q5776 347 5773 333L5762 333Q5759 330 5759 328Q5759 327 5760 323Q5756 322 5755 319Q5754 316 5753 313Q5752 310 5748 304Q5744 299 5739 293Q5735 287 5730 281Q5726 275 5724 272Q5723 266 5721 260Q5720 255 5721 249L5709 249Q5706 238 5706 228Q5695 206 5690 193Q5685 180 5674 168Q5676 162 5674 160Q5672 158 5672 153Q5664 145 5659 139Q5654 133 5652 122Q5647 120 5645 116Q5644 113 5642 109Q5641 106 5638 103Q5636 100 5630 99Q5635 92 5634 86Q5634 81 5637 75Q5637 71 5633 70Q5629 70 5627 64Q5625 59 5625 54Q5626 49 5625 44Q5623 39 5622 38Q5622 38 5621 37Q5620 36 5620 33Q5620 31 5620 23Q5612 21 5615 13Q5610 15 5609 11Q5608 8 5609 4Q5604 5 5599 4Q5594 4 5591 -1Q5587 2 5582 0Q5578 -1 5573 -1Q5567 5 5561 4Q5555 3 5547 3Q5542 14 5535 21Q5528 28 5526 42Q5521 47 5518 53Q5516 59 5511 64Q5511 75 5507 85Q5503 96 5493 102Q5492 111 5488 118Q5484 126 5479 133Q5479 140 5476 145Q5474 151 5471 155Q5468 160 5465 165Q5462 170 5461 176Q5457 178 5454 181Q5452 185 5447 187Q5446 192 5444 195Q5443 199 5441 203Q5430 213 5424 226Q5418 239 5407 248Q5408 251 5406 253Q5405 255 5404 258Q5388 271 5379 289Q5371 308 5358 317Q5348 329 5343 336Q5339 343 5331 348Q5323 349 5323 345Q5323 341 5325 336Q5325 333 5324 330Q5323 327 5323 324Q5323 321 5324 318Q5325 316 5325 313Q5325 296 5322 279Q5320 263 5320 246Q5320 244 5321 241Q5322 238 5322 235Q5322 231 5320 228Q5319 225 5319 220Q5319 211 5320 201Q5322 192 5323 183Q5327 181 5328 178Q5330 175 5332 172Q5331 165 5331 158Q5332 151 5335 145Q5333 141 5331 138Q5329 135 5333 131Q5333 126 5336 124Q5339 122 5342 120Q5345 119 5347 117Q5350 115 5350 110Q5350 104 5345 100Q5341 97 5337 93Q5344 77 5345 61Q5342 59 5339 57Q5336 56 5334 52Q5324 41 5326 39Q5329 38 5328 35Q5317 30 5309 21Q5301 13 5289 11Q5282 17 5276 20Q5271 23 5261 21Q5257 24 5256 27Q5255 31 5249 31Q5249 39 5245 42Q5242 45 5239 51Q5241 61 5238 70Q5236 80 5236 90Q5236 100 5237 109Q5239 119 5239 129Q5239 134 5237 138Q5236 142 5236 147Q5236 150 5237 153Q5239 156 5239 159Q5239 162 5237 164Q5235 167 5234 170Q5232 176 5231 182Q5231 188 5231 194Q5231 199 5233 203Q5236 207 5236 212Q5236 221 5234 230Q5233 240 5233 250Q5233 257 5236 261Q5239 266 5239 271Q5239 279 5237 287Q5236 295 5234 303Q5236 319 5236 323Q5236 328 5237 330Q5239 333 5240 335Q5242 337 5242 342Q5242 347 5240 352Q5239 358 5239 363Q5239 375 5241 386Q5244 398 5244 410Q5244 415 5242 418Q5240 421 5239 425Q5242 427 5241 431Q5240 436 5240 439Q5242 452 5239 452Q5236 453 5234 455Q5236 465 5240 470Q5244 476 5245 490Q5245 497 5244 504Q5244 512 5248 519Q5257 521 5260 528Q5263 536 5265 544Q5272 543 5277 550Q5281 549 5286 550Q5292 552 5299 553Q5306 554 5315 552Q5324 551 5335 545L5335 533Q5344 526 5346 513Q5349 501 5353 491Q5355 486 5359 477Q5364 468 5369 459Q5375 450 5381 442Q5387 435 5392 433Q5392 428 5394 423Q5397 419 5397 414Q5400 410 5402 405Q5404 401 5409 398Q5409 388 5414 383Q5420 378 5422 369Q5425 367 5428 366Q5432 366 5435 364Q5439 354 5447 348Q5455 342 5462 334Q5469 325 5475 315Q5481 306 5491 300Q5491 292 5493 285Q5496 279 5504 277Q5502 270 5507 267Q5513 265 5516 260Q5514 253 5517 254Q5520 255 5520 250Q5528 242 5528 238Q5529 235 5531 233Q5535 228 5538 223Q5541 219 5544 214Q5548 210 5551 205Q5554 201 5555 201Q5553 189 5558 181Q5563 173 5570 171Q5577 170 5583 177Q5590 185 5592 205Q5603 210 5604 220Q5605 230 5607 240Q5612 244 5614 249Q5617 254 5622 257Q5624 262 5623 263Q5622 264 5620 268Q5624 269 5624 272Q5625 276 5625 279Q5631 280 5630 284Q5630 288 5638 289Q5636 297 5638 299Q5640 302 5640 309Q5644 311 5643 312Q5643 314 5650 312Q5649 315 5649 320Q5650 325 5647 327Q5649 329 5653 328Q5657 328 5659 328Q5660 339 5666 345Q5673 352 5674 363Q5690 371 5695 380Q5700 390 5709 396Q5708 402 5709 405Q5711 409 5713 411Q5715 414 5717 417Q5719 420 5719 425Q5727 427 5729 434Q5731 442 5739 446Q5737 452 5741 464Q5745 477 5753 477Q5754 491 5760 499Q5766 507 5768 519Q5774 519 5780 522Q5782 530 5788 533Q5794 537 5797 544Q5814 546 5821 552Q5828 559 5838 554Q5842 549 5843 547Q5844 545 5842 539L5855 539Q5857 534 5857 531Q5858 529 5857 524Q5859 520 5862 518Q5866 516 5867 514Q5865 503 5868 491Q5871 479 5866 468Q5873 466 5871 458Q5870 450 5876 446Q5874 443 5873 440Q5872 438 5871 435Q5876 434 5876 432Q5876 431 5875 428Q5875 426 5875 422Q5876 418 5882 411Q5882 409 5879 408Q5877 407 5877 402Q5879 400 5880 397Q5882 394 5884 392Q5879 381 5883 375Q5887 369 5887 362Q5884 348 5886 344Q5889 340 5881 337Q5884 327 5886 316Q5889 306 5889 295Q5889 290 5888 284Q5887 279 5887 274Q5887 269 5889 266Q5892 263 5892 261Q5892 258 5890 257Q5888 256 5890 251Q5890 240 5886 231Q5883 223 5891 214Q5888 207 5890 200Q5892 193 5892 185Q5895 183 5896 180Q5898 178 5900 176Q5896 170 5899 165Q5902 160 5902 154Q5899 152 5899 146Q5900 141 5902 135Q5905 129 5908 123Q5911 117 5912 114Q5911 100 5917 97Q5918 93 5918 89Q5918 85 5923 83Q5921 76 5924 72Q5927 68 5931 63Q5932 46 5929 40Q5926 35 5931 28ZM6143 49Q6141 46 6139 43Q6137 41 6136 38Q6130 36 6126 33Q6122 31 6115 31Q6102 18 6088 11Q6082 16 6074 17Q6067 19 6059 18Q6059 19 6056 22Q6053 26 6049 29Q6046 33 6043 36Q6040 40 6039 40Q6039 52 6036 64Q6034 76 6034 87Q6034 95 6037 103Q6040 111 6040 119Q6040 128 6039 137Q6039 146 6039 155Q6039 159 6040 162Q6041 165 6041 169Q6041 174 6038 178Q6036 183 6036 188Q6036 193 6037 197Q6039 201 6039 206Q6039 213 6034 218Q6035 223 6037 226Q6039 229 6041 234Q6034 254 6039 270Q6044 286 6044 306Q6044 310 6042 312Q6040 315 6039 319Q6044 326 6041 330Q6038 335 6036 340Q6039 343 6039 351Q6039 359 6039 363Q6040 368 6038 370Q6037 372 6036 377Q6041 383 6037 395Q6034 407 6034 415Q6034 419 6034 426Q6035 434 6035 442Q6035 450 6035 457Q6035 464 6034 468Q6032 471 6030 474Q6028 477 6028 481Q6028 486 6030 492Q6032 498 6031 503Q6036 506 6038 507Q6040 508 6046 506Q6048 513 6053 520Q6058 527 6066 527Q6070 527 6073 524Q6076 521 6079 519Q6082 517 6085 516Q6088 516 6091 521Q6097 519 6100 514Q6103 510 6111 509Q6113 502 6117 495Q6121 489 6121 482Q6121 477 6119 472Q6118 468 6118 463Q6118 460 6119 457Q6121 454 6121 450Q6121 444 6119 438Q6118 432 6118 425Q6118 419 6121 415Q6124 412 6124 407Q6124 399 6123 397Q6123 395 6128 388Q6129 383 6127 380Q6126 377 6126 374Q6126 369 6128 366Q6131 363 6131 360Q6131 357 6129 354Q6128 351 6128 348Q6128 323 6131 301Q6132 295 6134 289Q6136 284 6136 279Q6136 273 6134 267Q6133 262 6133 256Q6133 244 6134 232Q6136 221 6134 209Q6136 204 6136 199Q6136 195 6141 193Q6139 188 6136 186Q6134 184 6136 177Q6134 169 6138 165Q6142 161 6142 157Q6142 156 6139 154Q6136 153 6136 148Q6136 144 6138 141Q6141 139 6141 135Q6141 130 6140 125Q6139 120 6139 115Q6139 104 6142 92Q6145 80 6135 70Q6140 65 6139 59Q6138 53 6143 49Z" fill="#ffffff" style=""></path></g></g><g transform="matrix(0.75,0,0,0.75,435.5,849.825)"><g transform="matrix(0.5,0,0,-0.5,0,0)"><path d="M2198 -444L2204 -464Q2170 -489 2130 -498Q2091 -507 2051 -507Q1914 -507 1807 -467Q1701 -426 1620 -355Q1540 -284 1483 -188Q1427 -92 1389 19Q1352 130 1332 251Q1312 372 1305 492Q1298 613 1301 728Q1305 844 1315 943Q1297 916 1271 857Q1245 798 1213 719Q1182 640 1148 546Q1114 453 1080 358Q1047 263 1015 171Q984 80 959 5Q935 -70 917 -123Q900 -175 895 -193Q891 -205 884 -223Q878 -241 868 -258Q859 -275 846 -287Q834 -299 818 -299Q800 -299 788 -285Q776 -270 768 -250Q761 -230 756 -210Q752 -190 750 -178Q744 -136 739 -72Q734 -8 730 70Q727 148 725 236Q723 325 721 414Q720 504 719 590Q719 677 718 752Q718 828 718 888Q718 948 718 984Q696 934 665 857Q635 780 599 684Q564 588 525 477Q487 367 449 250Q412 133 377 14Q343 -105 316 -217Q313 -227 308 -242Q304 -256 297 -269Q290 -282 279 -292Q269 -301 254 -301Q240 -301 229 -292Q218 -283 210 -271Q203 -258 198 -244Q194 -229 193 -217Q188 -192 184 -162Q181 -132 178 -101Q176 -69 174 -39Q172 -8 170 18Q159 155 154 289Q150 423 150 559Q150 693 154 825Q159 957 168 1092Q171 1131 177 1179Q183 1228 200 1271Q218 1314 251 1343Q285 1372 343 1372Q357 1372 367 1365Q377 1359 377 1343L377 1333Q368 1273 359 1213Q350 1154 340 1092Q316 892 299 692Q283 493 283 291Q283 212 286 135Q289 58 297 -20Q366 194 418 359Q471 524 511 648Q551 772 578 859Q606 947 625 1006Q644 1065 655 1100Q666 1136 673 1155Q680 1175 683 1184Q686 1193 689 1200Q704 1234 730 1261Q756 1288 797 1288Q825 1288 842 1274Q860 1260 870 1239Q880 1218 883 1193Q887 1168 887 1147Q885 992 878 840Q871 689 866 540Q861 391 861 244Q862 97 875 -49Q915 69 949 173Q983 278 1013 373Q1044 468 1072 556Q1101 644 1131 730Q1162 816 1195 902Q1228 988 1268 1079Q1277 1097 1288 1115Q1299 1134 1313 1149Q1327 1164 1345 1174Q1363 1184 1385 1184Q1416 1184 1434 1164Q1452 1144 1461 1116Q1471 1088 1474 1057Q1477 1027 1477 1006Q1477 914 1471 802Q1465 691 1462 571Q1460 451 1465 328Q1470 205 1492 90Q1514 -25 1557 -125Q1600 -225 1673 -300Q1746 -374 1853 -417Q1961 -460 2112 -460Q2135 -460 2156 -457Q2178 -453 2198 -444ZM2331 295Q2331 225 2308 165Q2285 105 2243 61Q2201 17 2142 -8Q2084 -33 2013 -33Q1950 -33 1899 -10Q1849 14 1813 54Q1777 94 1758 147Q1739 201 1739 262Q1739 313 1753 359Q1768 405 1794 444Q1820 484 1856 517Q1892 551 1934 578L1946 569Q1904 520 1880 461Q1856 402 1856 336Q1856 288 1870 238Q1885 189 1913 148Q1941 107 1983 81Q2025 55 2079 55Q2113 55 2143 69Q2173 83 2195 107Q2218 131 2231 161Q2245 192 2245 225Q2245 257 2235 287Q2226 318 2209 344Q2192 371 2168 392Q2144 414 2116 428Q2100 436 2085 440Q2071 444 2054 449Q2047 450 2039 452Q2031 455 2024 458Q2017 462 2012 468Q2007 474 2007 483Q2007 501 2020 516Q2033 531 2051 542Q2069 554 2089 560Q2109 567 2124 567Q2175 567 2214 541Q2253 515 2279 475Q2305 435 2318 387Q2331 339 2331 295ZM3177 147L3186 143Q3168 103 3140 71Q3113 39 3081 16Q3049 -6 3015 -19Q2981 -31 2950 -31Q2892 -31 2852 -11Q2812 9 2787 43Q2762 77 2751 123Q2740 169 2740 221Q2740 261 2746 304Q2752 347 2763 387Q2765 393 2767 401Q2769 410 2769 416Q2769 421 2763 424Q2746 430 2727 435Q2708 441 2689 448Q2671 455 2654 464Q2638 473 2626 487Q2625 427 2606 365Q2587 304 2555 247Q2524 191 2482 142Q2440 93 2393 57L2383 67Q2412 99 2436 143Q2460 187 2477 235Q2494 283 2503 332Q2513 381 2513 424Q2513 446 2509 465Q2505 485 2500 503Q2496 521 2492 537Q2488 554 2488 571Q2488 599 2506 615Q2524 631 2552 631Q2567 631 2575 622Q2583 614 2589 602Q2595 590 2603 577Q2611 564 2626 555Q2645 544 2674 539Q2703 534 2735 530Q2767 526 2799 522Q2831 518 2856 508Q2882 499 2898 482Q2914 466 2914 438Q2914 424 2911 410Q2909 397 2904 385Q2892 343 2883 299Q2875 256 2875 213Q2875 176 2880 145Q2886 115 2901 93Q2916 71 2941 59Q2966 47 3005 47Q3061 47 3103 74Q3145 102 3177 147ZM3766 147L3774 143Q3748 105 3711 72Q3675 39 3631 15Q3588 -9 3540 -23Q3493 -37 3445 -37Q3377 -37 3318 -20Q3259 -2 3215 34Q3171 70 3146 124Q3121 179 3121 252Q3121 324 3147 386Q3174 449 3220 495Q3267 542 3330 569Q3393 596 3465 596Q3499 596 3528 586Q3558 577 3580 558Q3602 540 3614 513Q3627 486 3627 451Q3627 409 3610 377Q3593 345 3565 321Q3537 297 3501 281Q3466 265 3427 255Q3389 245 3351 240Q3314 236 3283 236L3259 236Q3272 145 3331 97Q3390 49 3494 49Q3568 49 3638 75Q3709 101 3766 147ZM3256 289L3256 266L3281 266Q3317 266 3355 277Q3393 289 3423 311Q3454 334 3474 367Q3494 400 3494 442Q3494 483 3476 510Q3459 537 3416 537Q3372 537 3341 510Q3311 484 3292 445Q3273 407 3264 364Q3256 322 3256 289ZM4860 147L4866 143Q4844 106 4814 74Q4785 42 4749 18Q4714 -6 4673 -20Q4632 -33 4588 -33Q4523 -33 4473 -11Q4424 11 4388 48Q4352 86 4328 136Q4304 186 4290 240Q4276 295 4270 352Q4264 409 4264 461Q4264 509 4268 559Q4272 610 4280 663Q4249 662 4219 662Q4190 662 4161 662Q4142 662 4118 663Q4094 664 4073 671Q4052 678 4038 692Q4024 706 4024 733Q4024 748 4029 757Q4035 766 4044 770Q4054 775 4066 776Q4079 778 4092 778Q4107 778 4163 773Q4219 768 4298 762Q4323 880 4362 994Q4402 1108 4452 1202L4466 1202Q4434 1093 4409 982Q4385 871 4373 757Q4446 752 4523 748Q4601 745 4675 745Q4784 745 4852 747Q4920 749 4959 752Q5005 756 5028 760L5032 743Q4972 729 4895 716Q4818 704 4731 694Q4644 685 4551 678Q4458 671 4366 667Q4364 647 4364 626Q4364 606 4364 586Q4364 538 4368 480Q4373 422 4385 363Q4397 305 4417 249Q4438 194 4471 151Q4505 109 4552 83Q4599 57 4663 57Q4722 57 4769 83Q4817 109 4860 147ZM5669 151L5677 147Q5660 111 5635 75Q5611 40 5581 11Q5551 -17 5515 -35Q5479 -53 5438 -53Q5393 -53 5360 -30Q5327 -6 5304 32Q5281 71 5266 121Q5251 171 5241 224Q5231 277 5224 330Q5218 383 5212 427Q5180 385 5154 338Q5128 291 5104 240Q5080 190 5057 138Q5034 86 5008 35Q5002 24 4996 11Q4990 -1 4982 -12Q4974 -22 4963 -29Q4952 -36 4937 -36Q4923 -36 4913 -31Q4904 -26 4897 -19Q4891 -11 4887 -2Q4884 7 4882 15Q4870 58 4860 123Q4851 188 4844 262Q4837 336 4833 412Q4830 489 4830 554Q4830 647 4842 745Q4854 844 4879 938Q4905 1032 4944 1115Q4984 1199 5038 1262Q5092 1325 5161 1362Q5231 1399 5317 1399Q5374 1399 5407 1365Q5440 1332 5440 1270Q5440 1177 5407 1091Q5375 1006 5324 928Q5274 850 5212 780Q5151 711 5094 652L5081 662Q5106 690 5134 731Q5163 773 5190 821Q5218 870 5243 923Q5268 977 5287 1029Q5306 1081 5317 1129Q5328 1178 5328 1218Q5328 1239 5324 1258Q5320 1277 5310 1291Q5300 1306 5284 1314Q5269 1323 5247 1323Q5203 1323 5164 1289Q5126 1255 5094 1197Q5062 1140 5037 1064Q5013 988 4995 905Q4978 822 4969 737Q4960 652 4960 575Q4960 523 4960 470Q4960 417 4962 359Q4965 301 4971 236Q4978 171 4990 95Q5034 209 5083 318Q5132 428 5189 519Q5197 532 5205 545Q5214 558 5224 568Q5234 579 5246 586Q5258 593 5272 593Q5289 593 5299 583Q5309 574 5315 560Q5321 546 5323 530Q5326 514 5328 501Q5332 472 5337 426Q5342 380 5349 327Q5356 275 5366 222Q5377 169 5393 126Q5410 84 5433 57Q5456 30 5488 30Q5514 30 5540 41Q5566 52 5590 69Q5614 86 5634 108Q5655 130 5669 151ZM6109 524Q6109 513 6101 504Q6093 496 6082 496Q6073 496 6063 501Q6053 507 6040 514Q6028 521 6011 526Q5995 532 5974 532Q5925 532 5886 501Q5848 471 5821 426Q5795 381 5781 330Q5767 279 5767 238Q5767 209 5772 181Q5777 154 5789 131Q5802 109 5824 95Q5846 82 5880 82Q5916 82 5949 95Q5982 109 6011 131Q6012 163 6021 198Q6031 234 6046 268Q6061 303 6080 334Q6100 365 6121 389L6134 381Q6123 347 6118 311Q6113 275 6113 240Q6113 204 6119 172Q6125 140 6140 116Q6155 93 6181 79Q6207 66 6248 66Q6298 66 6340 89Q6382 112 6414 147L6422 143Q6404 108 6375 76Q6346 44 6310 18Q6275 -7 6235 -22Q6195 -37 6156 -37Q6101 -37 6066 -6Q6031 26 6018 74Q5976 32 5924 3Q5873 -25 5816 -25Q5774 -25 5741 -10Q5709 6 5687 32Q5665 58 5653 93Q5642 129 5642 168Q5642 213 5656 260Q5671 308 5696 354Q5722 400 5757 441Q5792 482 5833 513Q5875 544 5921 562Q5967 580 6015 580Q6026 580 6042 577Q6058 575 6073 569Q6088 563 6098 552Q6109 541 6109 524ZM7230 147L7237 143Q7218 107 7196 74Q7175 41 7148 16Q7121 -9 7087 -24Q7053 -39 7009 -39Q6959 -39 6923 -15Q6887 10 6861 50Q6836 91 6820 143Q6805 195 6795 249Q6785 303 6780 355Q6775 408 6771 450Q6752 435 6725 392Q6698 350 6670 293Q6642 236 6616 169Q6591 102 6575 37Q6572 23 6565 8Q6559 -7 6549 -20Q6540 -32 6527 -41Q6514 -49 6498 -49Q6472 -49 6460 -31Q6449 -13 6444 10Q6415 137 6403 253Q6392 369 6392 485Q6392 513 6401 533Q6411 554 6427 567Q6443 581 6465 587Q6487 594 6511 594Q6514 594 6520 594Q6527 594 6533 592Q6539 591 6543 588Q6547 585 6546 580Q6520 449 6521 313Q6522 178 6535 53Q6546 103 6567 166Q6589 230 6617 294Q6646 359 6679 417Q6713 476 6748 516Q6765 535 6782 548Q6800 562 6826 562Q6841 562 6851 556Q6861 550 6867 541Q6874 532 6877 520Q6881 509 6883 498Q6888 469 6893 423Q6898 377 6905 325Q6913 273 6924 220Q6935 168 6952 125Q6969 83 6993 56Q7017 29 7050 29Q7077 29 7102 39Q7128 50 7151 66Q7174 83 7194 104Q7214 126 7230 147ZM8845 147L8851 143Q8833 107 8808 73Q8783 40 8752 14Q8721 -12 8683 -28Q8646 -43 8602 -43Q8540 -43 8501 -1Q8462 41 8437 108Q8413 176 8399 261Q8385 347 8375 434Q8352 393 8332 348Q8313 304 8295 255Q8277 206 8259 154Q8241 102 8220 47Q8215 35 8209 20Q8203 6 8193 -8Q8184 -21 8171 -30Q8158 -39 8140 -39Q8127 -39 8117 -33Q8107 -27 8099 -19Q8092 -10 8086 0Q8081 11 8077 20Q8057 65 8045 112Q8033 159 8024 209Q8016 259 8010 315Q8004 371 7998 434Q7977 385 7960 340Q7944 296 7928 251Q7913 207 7897 159Q7882 112 7865 57Q7861 44 7856 29Q7852 15 7845 3Q7839 -9 7828 -17Q7818 -25 7802 -25Q7776 -25 7764 -9Q7752 8 7744 30Q7732 60 7721 113Q7710 167 7701 230Q7692 293 7687 360Q7682 427 7682 485Q7682 541 7712 567Q7742 594 7791 594Q7794 594 7800 594Q7806 594 7812 592Q7818 591 7822 588Q7827 585 7826 580Q7817 510 7814 447Q7811 384 7812 324Q7813 265 7818 207Q7824 150 7833 90Q7850 147 7866 199Q7883 251 7901 302Q7919 353 7939 405Q7960 458 7984 516Q7997 546 8011 558Q8026 570 8049 570Q8078 570 8094 548Q8111 526 8116 498Q8124 447 8130 393Q8136 340 8143 286Q8150 232 8160 179Q8170 127 8186 78Q8206 130 8226 186Q8246 243 8267 300Q8288 357 8311 412Q8335 467 8362 516Q8375 539 8391 554Q8408 570 8433 570Q8447 570 8458 563Q8469 557 8477 546Q8485 536 8490 523Q8495 511 8497 498Q8502 469 8506 423Q8511 377 8518 325Q8526 273 8537 220Q8548 168 8565 125Q8582 83 8606 56Q8630 29 8664 29Q8692 29 8718 39Q8744 50 8767 66Q8790 83 8809 104Q8829 126 8845 147ZM9607 147L9613 143Q9596 108 9567 76Q9538 44 9502 18Q9466 -7 9426 -22Q9386 -37 9347 -37Q9293 -37 9257 -5Q9222 28 9205 74Q9166 35 9119 9Q9072 -16 9015 -16Q8964 -16 8924 2Q8885 21 8859 53Q8833 85 8819 127Q8806 169 8806 217Q8806 271 8821 322Q8836 374 8863 420Q8890 467 8927 507Q8964 547 9007 578L9019 569Q8977 509 8952 436Q8927 364 8927 289Q8927 257 8934 221Q8941 185 8957 154Q8973 123 8999 102Q9026 82 9066 82Q9100 82 9131 93Q9162 105 9191 125Q9189 137 9188 148Q9187 160 9187 172Q9187 220 9201 276Q9215 332 9238 387Q9261 443 9290 493Q9320 544 9351 580L9363 571Q9340 494 9325 412Q9310 330 9310 250Q9310 214 9314 180Q9319 147 9333 120Q9348 94 9374 78Q9400 63 9443 63Q9491 63 9533 87Q9575 112 9607 147ZM10113 215Q10113 163 10094 117Q10075 71 10041 37Q10007 3 9961 -17Q9916 -37 9863 -37Q9828 -37 9794 -26Q9760 -15 9731 5Q9703 26 9682 55Q9661 84 9652 119L9675 125Q9701 93 9735 72Q9770 51 9814 51Q9851 51 9882 67Q9914 83 9936 109Q9959 135 9971 169Q9984 204 9984 240Q9984 283 9972 311Q9960 340 9940 359Q9921 379 9897 393Q9873 408 9848 423Q9824 438 9801 457Q9779 476 9763 506Q9762 447 9743 382Q9724 317 9691 256Q9659 195 9617 142Q9575 89 9528 53L9520 67Q9552 101 9576 152Q9600 203 9615 259Q9631 316 9638 373Q9646 430 9646 477Q9646 502 9641 526Q9636 550 9636 573Q9636 601 9652 616Q9669 631 9695 631Q9715 631 9727 622Q9739 613 9749 598Q9759 584 9769 565Q9779 547 9794 527Q9810 508 9833 489Q9857 471 9894 457Q9937 441 9976 420Q10016 400 10046 372Q10077 344 10095 305Q10113 267 10113 215ZM11070 151L11078 147Q11061 111 11036 75Q11012 40 10982 11Q10952 -17 10916 -35Q10880 -53 10839 -53Q10794 -53 10761 -30Q10728 -6 10705 32Q10682 71 10667 121Q10652 171 10642 224Q10632 277 10625 330Q10619 383 10613 427Q10581 385 10555 338Q10529 291 10505 240Q10481 190 10458 138Q10435 86 10409 35Q10403 24 10397 11Q10391 -1 10383 -12Q10375 -22 10364 -29Q10353 -36 10338 -36Q10324 -36 10314 -31Q10305 -26 10298 -19Q10292 -11 10288 -2Q10285 7 10283 15Q10271 58 10261 123Q10252 188 10245 262Q10238 336 10234 412Q10231 489 10231 554Q10231 647 10243 745Q10255 844 10280 938Q10306 1032 10345 1115Q10385 1199 10439 1262Q10493 1325 10562 1362Q10632 1399 10718 1399Q10775 1399 10808 1365Q10841 1332 10841 1270Q10841 1177 10808 1091Q10776 1006 10725 928Q10675 850 10613 780Q10552 711 10495 652L10482 662Q10507 690 10535 731Q10564 773 10591 821Q10619 870 10644 923Q10669 977 10688 1029Q10707 1081 10718 1129Q10729 1178 10729 1218Q10729 1239 10725 1258Q10721 1277 10711 1291Q10701 1306 10685 1314Q10670 1323 10648 1323Q10604 1323 10565 1289Q10527 1255 10495 1197Q10463 1140 10438 1064Q10414 988 10396 905Q10379 822 10370 737Q10361 652 10361 575Q10361 523 10361 470Q10361 417 10363 359Q10366 301 10372 236Q10379 171 10391 95Q10435 209 10484 318Q10533 428 10590 519Q10598 532 10606 545Q10615 558 10625 568Q10635 579 10647 586Q10659 593 10673 593Q10690 593 10700 583Q10710 574 10716 560Q10722 546 10724 530Q10727 514 10729 501Q10733 472 10738 426Q10743 380 10750 327Q10757 275 10767 222Q10778 169 10794 126Q10811 84 10834 57Q10857 30 10889 30Q10915 30 10941 41Q10967 52 10991 69Q11015 86 11035 108Q11056 130 11070 151ZM11799 147L11808 143Q11790 103 11762 71Q11735 39 11703 16Q11671 -6 11637 -19Q11603 -31 11572 -31Q11514 -31 11474 -11Q11434 9 11409 43Q11384 77 11373 123Q11362 169 11362 221Q11362 261 11368 304Q11374 347 11385 387Q11387 393 11389 401Q11391 410 11391 416Q11391 421 11385 424Q11368 430 11349 435Q11330 441 11311 448Q11293 455 11276 464Q11260 473 11248 487Q11247 427 11228 365Q11209 304 11177 247Q11146 191 11104 142Q11062 93 11015 57L11005 67Q11034 99 11058 143Q11082 187 11099 235Q11116 283 11125 332Q11135 381 11135 424Q11135 446 11131 465Q11127 485 11122 503Q11118 521 11114 537Q11110 554 11110 571Q11110 599 11128 615Q11146 631 11174 631Q11189 631 11197 622Q11205 614 11211 602Q11217 590 11225 577Q11233 564 11248 555Q11267 544 11296 539Q11325 534 11357 530Q11389 526 11421 522Q11453 518 11478 508Q11504 499 11520 482Q11536 466 11536 438Q11536 424 11533 410Q11531 397 11526 385Q11514 343 11505 299Q11497 256 11497 213Q11497 176 11502 145Q11508 115 11523 93Q11538 71 11563 59Q11588 47 11627 47Q11683 47 11725 74Q11767 102 11799 147ZM12335 295Q12335 225 12312 165Q12289 105 12247 61Q12205 17 12146 -8Q12088 -33 12017 -33Q11954 -33 11903 -10Q11853 14 11817 54Q11781 94 11762 147Q11743 201 11743 262Q11743 313 11757 359Q11772 405 11798 444Q11824 484 11860 517Q11896 551 11938 578L11950 569Q11908 520 11884 461Q11860 402 11860 336Q11860 288 11874 238Q11889 189 11917 148Q11945 107 11987 81Q12029 55 12083 55Q12117 55 12147 69Q12177 83 12199 107Q12222 131 12235 161Q12249 192 12249 225Q12249 257 12239 287Q12230 318 12213 344Q12196 371 12172 392Q12148 414 12120 428Q12104 436 12089 440Q12075 444 12058 449Q12051 450 12043 452Q12035 455 12028 458Q12021 462 12016 468Q12011 474 12011 483Q12011 501 12024 516Q12037 531 12055 542Q12073 554 12093 560Q12113 567 12128 567Q12179 567 12218 541Q12257 515 12283 475Q12309 435 12322 387Q12335 339 12335 295ZM12997 295Q12997 225 12974 165Q12951 105 12909 61Q12867 17 12808 -8Q12750 -33 12679 -33Q12616 -33 12565 -10Q12515 14 12479 54Q12443 94 12424 147Q12405 201 12405 262Q12405 313 12419 359Q12434 405 12460 444Q12486 484 12522 517Q12558 551 12600 578L12612 569Q12570 520 12546 461Q12522 402 12522 336Q12522 288 12536 238Q12551 189 12579 148Q12607 107 12649 81Q12691 55 12745 55Q12779 55 12809 69Q12839 83 12861 107Q12884 131 12897 161Q12911 192 12911 225Q12911 257 12901 287Q12892 318 12875 344Q12858 371 12834 392Q12810 414 12782 428Q12766 436 12751 440Q12737 444 12720 449Q12713 450 12705 452Q12697 455 12690 458Q12683 462 12678 468Q12673 474 12673 483Q12673 501 12686 516Q12699 531 12717 542Q12735 554 12755 560Q12775 567 12790 567Q12841 567 12880 541Q12919 515 12945 475Q12971 435 12984 387Q12997 339 12997 295ZM14260 147L14266 143Q14248 107 14223 73Q14198 40 14167 14Q14136 -12 14098 -28Q14061 -43 14017 -43Q13955 -43 13916 -1Q13877 41 13852 108Q13828 176 13814 261Q13800 347 13790 434Q13767 393 13747 348Q13728 304 13710 255Q13692 206 13674 154Q13656 102 13635 47Q13630 35 13624 20Q13618 6 13608 -8Q13599 -21 13586 -30Q13573 -39 13555 -39Q13542 -39 13532 -33Q13522 -27 13514 -19Q13507 -10 13501 0Q13496 11 13492 20Q13472 65 13460 112Q13448 159 13439 209Q13431 259 13425 315Q13419 371 13413 434Q13392 385 13375 340Q13359 296 13343 251Q13328 207 13312 159Q13297 112 13280 57Q13276 44 13271 29Q13267 15 13260 3Q13254 -9 13243 -17Q13233 -25 13217 -25Q13191 -25 13179 -9Q13167 8 13159 30Q13147 60 13136 113Q13125 167 13116 230Q13107 293 13102 360Q13097 427 13097 485Q13097 541 13127 567Q13157 594 13206 594Q13209 594 13215 594Q13221 594 13227 592Q13233 591 13237 588Q13242 585 13241 580Q13232 510 13229 447Q13226 384 13227 324Q13228 265 13233 207Q13239 150 13248 90Q13265 147 13281 199Q13298 251 13316 302Q13334 353 13354 405Q13375 458 13399 516Q13412 546 13426 558Q13441 570 13464 570Q13493 570 13509 548Q13526 526 13531 498Q13539 447 13545 393Q13551 340 13558 286Q13565 232 13575 179Q13585 127 13601 78Q13621 130 13641 186Q13661 243 13682 300Q13703 357 13726 412Q13750 467 13777 516Q13790 539 13806 554Q13823 570 13848 570Q13862 570 13873 563Q13884 557 13892 546Q13900 536 13905 523Q13910 511 13912 498Q13917 469 13921 423Q13926 377 13933 325Q13941 273 13952 220Q13963 168 13980 125Q13997 83 14021 56Q14045 29 14079 29Q14107 29 14133 39Q14159 50 14182 66Q14205 83 14224 104Q14244 126 14260 147ZM14786 215Q14786 163 14767 117Q14748 71 14714 37Q14680 3 14634 -17Q14589 -37 14536 -37Q14501 -37 14467 -26Q14433 -15 14404 5Q14376 26 14355 55Q14334 84 14325 119L14348 125Q14374 93 14408 72Q14443 51 14487 51Q14524 51 14555 67Q14587 83 14609 109Q14632 135 14644 169Q14657 204 14657 240Q14657 283 14645 311Q14633 340 14613 359Q14594 379 14570 393Q14546 408 14521 423Q14497 438 14474 457Q14452 476 14436 506Q14435 447 14416 382Q14397 317 14364 256Q14332 195 14290 142Q14248 89 14201 53L14193 67Q14225 101 14249 152Q14273 203 14288 259Q14304 316 14311 373Q14319 430 14319 477Q14319 502 14314 526Q14309 550 14309 573Q14309 601 14325 616Q14342 631 14368 631Q14388 631 14400 622Q14412 613 14422 598Q14432 584 14442 565Q14452 547 14467 527Q14483 508 14506 489Q14530 471 14567 457Q14610 441 14649 420Q14689 400 14719 372Q14750 344 14768 305Q14786 267 14786 215ZM15036 72Q15036 91 15043 108Q15050 125 15062 137Q15074 150 15091 157Q15108 164 15128 164Q15147 164 15164 157Q15181 150 15193 137Q15206 125 15213 108Q15220 91 15220 72Q15220 53 15213 36Q15206 19 15193 6Q15181 -6 15164 -13Q15147 -20 15128 -20Q15109 -20 15092 -13Q15075 -6 15062 6Q15050 19 15043 36Q15036 53 15036 72ZM15068 1294Q15068 1310 15079 1322Q15090 1334 15105 1342Q15120 1350 15135 1354Q15151 1358 15160 1358Q15178 1358 15189 1350Q15201 1343 15201 1309Q15201 1271 15198 1202Q15195 1133 15189 1046Q15184 959 15177 859Q15171 760 15164 660Q15157 561 15150 467Q15143 374 15138 300L15112 300Q15104 447 15096 580Q15088 714 15082 837Q15076 960 15072 1073Q15068 1187 15068 1294Z" fill="#ffffff" style=""></path></g></g></g></svg>